<?xml version="1.0" encoding="UTF-8"?>
<svg version="1.1" xmlns="http://www.w3.org/2000/svg" width="364" height="283">
<path d="M0 0 C0 0.66 0 1.32 0 2 C0.89138672 2.03867187 0.89138672 2.03867187 1.80078125 2.078125 C12.3968007 2.80320254 20.32684997 5.720444 28.22265625 12.90234375 C32.61868278 18.09062122 33.25976657 24.72828308 32.859375 31.3125 C30.82150293 44.78017631 22.43653491 55.80020217 14 66 C13.57227295 66.52706543 13.1445459 67.05413086 12.70385742 67.59716797 C10.47426606 70.32451487 8.25311418 72.85071642 5.5625 75.125 C4.87800781 75.70636719 4.19351562 76.28773438 3.48828125 76.88671875 C2.66714844 77.58410156 1.84601563 78.28148437 1 79 C-0.07032236 79.94252267 -1.13922815 80.88665541 -2.20703125 81.83203125 C-9.45460964 88.21099742 -16.82200687 93.83495171 -25 99 C-27.11414652 100.36809872 -29.22443372 101.7420484 -31.33496094 103.11572266 C-33.54234147 104.54940712 -35.75481054 105.97490717 -37.96875 107.3984375 C-40.31465576 108.90760786 -42.64668274 110.43055456 -44.96875 111.9765625 C-52.01444811 116.62417662 -59.40365138 120.32369366 -66.98095703 124.00585938 C-69.43900115 125.21615631 -71.86589327 126.48448829 -74.29711914 127.74755859 C-112.89910692 147.59765248 -155.1506786 163.56328345 -197.32275391 173.85839844 C-198.78914307 174.22433105 -198.78914307 174.22433105 -200.28515625 174.59765625 C-201.12957275 174.79883057 -201.97398926 175.00000488 -202.84399414 175.20727539 C-205.26395955 176.09705318 -206.38481111 177.01093622 -208 179 C-214.02800064 192.36643619 -212.38841369 207.72878472 -212 222 C-215.23486594 221.29822123 -216.89181195 220.63523506 -219 218 C-219 217.34 -219 216.68 -219 216 C-219.66 216 -220.32 216 -221 216 C-228.01060989 206.40490479 -233.11870497 195.52518012 -236 184 C-236.66 184 -237.32 184 -238 184 C-238 183.34 -238 182.68 -238 182 C-238.91136719 182.13277344 -239.82273437 182.26554688 -240.76171875 182.40234375 C-296.92820862 190.05887023 -296.92820862 190.05887023 -315 177 C-320.37838925 172.39698494 -322.94080698 166.95604644 -324 160 C-324.55249076 144.0928703 -315.93465387 131.10518478 -305.5625 119.8125 C-303.72158063 117.86184251 -301.86121711 115.93145172 -300 114 C-299.32839844 113.25363281 -298.65679687 112.50726563 -297.96484375 111.73828125 C-287.13583723 100.09117881 -272.77545234 90.81625264 -259 83 C-257.79537109 82.30777344 -257.79537109 82.30777344 -256.56640625 81.6015625 C-247.22539317 76.25996721 -237.89722646 71.00118053 -227.8125 67.1875 C-227.15983154 66.93919434 -226.50716309 66.69088867 -225.8347168 66.43505859 C-222.61642163 65.29664349 -221.33007865 64.88997378 -218 66 C-221.12942164 69.46857079 -224.59203699 71.6240192 -228.625 73.875 C-248.61987866 85.44245007 -275.18429099 104.38349628 -282.9375 127 C-284.60547726 133.50614731 -284.91533364 139.91074898 -283 146.375 C-278.15152273 152.73862642 -271.66329174 154.82000447 -264 156 C-260.36977182 156.29234396 -256.76586537 156.33347868 -253.125 156.3125 C-251.57437866 156.30512817 -251.57437866 156.30512817 -249.99243164 156.29760742 C-222.92217691 155.90252474 -196.96908611 150.18356312 -171 143 C-169.35257812 142.55527344 -169.35257812 142.55527344 -167.671875 142.1015625 C-143.17622125 134.75286637 -118.52790401 125.14297025 -96 113 C-95.2157666 112.58250488 -94.4315332 112.16500977 -93.62353516 111.73486328 C-82.76792568 105.94311928 -72.18169552 99.91632335 -62 93 C-61.41524902 92.60458008 -60.83049805 92.20916016 -60.22802734 91.80175781 C-52.81297066 86.75703892 -45.99051209 81.44664568 -39.44921875 75.296875 C-37.32940156 73.30891246 -35.1635547 71.42865364 -32.9375 69.5625 C-21.40304835 59.46985481 -9.83641286 46.25138822 -7.65625 30.51953125 C-7.4601631 25.64186959 -8.285127 22.1767277 -11 18 C-11.66 17.67 -12.32 17.34 -13 17 C-13 16.34 -13 15.68 -13 15 C-14.66453788 14.51348985 -16.33177729 14.03622085 -18 13.5625 C-18.928125 13.29566406 -19.85625 13.02882813 -20.8125 12.75390625 C-34.84326165 9.43535601 -49.78581205 10.92865905 -64.05078125 11.78125 C-66.69746684 11.92785177 -69.34925733 12 -72 12 C-72 11.34 -72 10.68 -72 10 C-66.60031945 6.88058995 -61.06280898 5.67761944 -55 4.375 C-54.02804687 4.1584375 -53.05609375 3.941875 -52.0546875 3.71875 C-34.74948855 -0.10065358 -17.64678469 -0.15860633 0 0 Z M-1 14 C-0.2884375 15.0828125 -0.2884375 15.0828125 0.4375 16.1875 C5.53396906 25.3611443 2.90869233 37.23499371 1 47 C5.64785723 41.04087578 8.52561427 34.45683173 7.78515625 26.76953125 C6.80763715 21.21163695 5.04066029 17.93964378 1 14 C0.34 14 -0.32 14 -1 14 Z M0 47 C1 49 1 49 1 49 Z M-307 139 C-306 142 -306 142 -306 142 Z M-308 142 C-309.88325613 148.81340631 -309.79019245 155.48190474 -306.66796875 161.91796875 C-302.36515185 167.28893224 -294.67248676 170.04217529 -288 171 C-286.39696373 171.06371368 -284.79162328 171.08644214 -283.1875 171.0625 C-282.00220703 171.04896484 -282.00220703 171.04896484 -280.79296875 171.03515625 C-280.20128906 171.02355469 -279.60960937 171.01195312 -279 171 C-279 170.67 -279 170.34 -279 170 C-279.86882812 169.76925781 -280.73765625 169.53851563 -281.6328125 169.30078125 C-288.28441846 167.41839165 -293.03779587 165.82809051 -298 161 C-298.66 161 -299.32 161 -300 161 C-300.66666667 159.66666667 -301.33333333 158.33333333 -302 157 C-302.495 156.113125 -302.99 155.22625 -303.5 154.3125 C-305.32222131 150.28842793 -306.18342914 146.32302218 -307 142 C-307.33 142 -307.66 142 -308 142 Z " fill="#FEA000" transform="translate(329,61)"/>
<path d="M0 0 C13.12999059 13.12999059 15.73772269 39.80758654 16.0390625 57.26269531 C15.94179734 84.43615026 5.68566014 107.50462792 -13 127 C-14.16015625 128.27230469 -14.16015625 128.27230469 -15.34375 129.5703125 C-23.60502293 138.3160428 -33.21976836 145.06513342 -43 152 C-44.46179688 153.05380859 -44.46179688 153.05380859 -45.953125 154.12890625 C-49.89542237 156.94203567 -53.91642237 159.58893386 -58.01147461 162.17480469 C-58.60581299 162.55024414 -59.20015137 162.92568359 -59.8125 163.3125 C-60.39974854 163.6827832 -60.98699707 164.05306641 -61.59204102 164.43457031 C-66.59696079 167.63760955 -71.28637835 171.17655185 -75.91333008 174.90161133 C-79.80064604 178 -79.80064604 178 -82 178 C-82 178.66 -82 179.32 -82 180 C-82.66 180 -83.32 180 -84 180 C-84 180.66 -84 181.32 -84 182 C-85.64593728 183.03376412 -87.31683265 184.02803012 -89 185 C-96.29232956 190.69471673 -101.88861241 197.33291861 -107 205 C-108.32 205 -109.64 205 -111 205 C-111.33 206.32 -111.66 207.64 -112 209 C-112 208.01 -112 207.02 -112 206 C-112.76030518 206.11593506 -113.52061035 206.23187012 -114.30395508 206.35131836 C-117.80630141 206.88341122 -121.30938644 207.41048292 -124.8125 207.9375 C-126.6059082 208.21110352 -126.6059082 208.21110352 -128.43554688 208.49023438 C-144.25342588 210.8607612 -144.25342588 210.8607612 -150 211 C-151 210 -151 210 -151.1640625 206.41015625 C-150.89167795 186.66227628 -140.17651309 168.05801448 -128.6875 152.8125 C-128.0382959 151.9460083 -128.0382959 151.9460083 -127.37597656 151.06201172 C-126.29998591 149.66848087 -125.15531527 148.32850696 -124 147 C-123.34 147 -122.68 147 -122 147 C-121.67 146.01 -121.34 145.02 -121 144 C-119.29296875 142.28125 -119.29296875 142.28125 -117.1875 140.5 C-116.50042969 139.9121875 -115.81335938 139.324375 -115.10546875 138.71875 C-113.72553123 137.59227039 -112.31120846 136.50638705 -110.86328125 135.46875 C-108.74740901 133.95700805 -108.74740901 133.95700805 -107 131 C-105.37768555 129.63183594 -105.37768555 129.63183594 -103.44921875 128.234375 C-102.73427246 127.71166016 -102.01932617 127.18894531 -101.28271484 126.65039062 C-100.152771 125.83344727 -100.152771 125.83344727 -99 125 C-97.50592854 123.90183288 -96.0124473 122.80286234 -94.51953125 121.703125 C-93.75471436 121.14214111 -92.98989746 120.58115723 -92.2019043 120.00317383 C-83.71430423 113.77558048 -75.30460523 107.4695052 -67 101 C-65.78020961 100.06215953 -64.56014728 99.12467268 -63.33984375 98.1875 C-57.77200543 93.89031203 -52.34803076 89.66242226 -47.50390625 84.5390625 C-45.92044592 82.91858621 -44.24969901 81.50071414 -42.5 80.0625 C-38.55327255 76.71825971 -35.28458968 72.98751743 -32 69 C-31.15179688 67.989375 -30.30359375 66.97875 -29.4296875 65.9375 C-22.48839101 57.50834584 -16.99948465 48.69277597 -12 39 C-11.4225 37.90945312 -10.845 36.81890625 -10.25 35.6953125 C-6.25248806 27.68030107 -4.19200707 19.5981887 -2.390625 10.88525391 C-1.87476286 8.39557424 -1.31229121 5.91704804 -0.75 3.4375 C-0.37875 1.7359375 -0.37875 1.7359375 0 0 Z " fill="#FEAA00" transform="translate(239,2)"/>
<path d="M0 0 C3.63 0 7.26 0 11 0 C11 0.66 11 1.32 11 2 C11.58394531 2.25265625 12.16789062 2.5053125 12.76953125 2.765625 C17.67401057 5.47983772 21.33918304 10.05426117 23.125 15.3125 C23 18 23 18 21.4921875 19.66796875 C20.75355469 20.32732422 20.75355469 20.32732422 20 21 C19.90203125 20.39671875 19.8040625 19.7934375 19.703125 19.171875 C18.79053096 14.29421718 18.12404277 11.16176612 14 8 C14.66 8.99 15.32 9.98 16 11 C18.82975962 22.01066724 17.02722447 34.06517422 11.5 43.9375 C7.29070547 50.43991766 2.17052944 56.25280993 -3 62 C-3.65871094 62.7321875 -4.31742187 63.464375 -4.99609375 64.21875 C-45.37901455 106.59910559 -111.35207596 133.08059025 -166.98583984 147.22460938 C-170.23549984 148.06058217 -173.47130475 148.93979544 -176.70703125 149.828125 C-203.27118583 157.11580487 -229.2766198 163.62599033 -257 163 C-258.26199219 162.97164062 -259.52398437 162.94328125 -260.82421875 162.9140625 C-268.03405933 162.58669677 -273.74746095 161.67649296 -280 158 C-280.62390625 157.66226563 -281.2478125 157.32453125 -281.890625 156.9765625 C-287.89557783 153.29526533 -291.66463369 147.38656642 -293.69921875 140.703125 C-294.91440083 133.33363365 -292.39380044 126.47637901 -289 120 C-292.40614946 120.02126462 -292.40614946 120.02126462 -296 121 C-298.01041003 123.93449408 -298.01041003 123.93449408 -299 127 C-299.99 127 -300.98 127 -302 127 C-298.60602684 121.7515879 -295.24749959 116.60145788 -291 112 C-290.34 112 -289.68 112 -289 112 C-288.7525 111.4225 -288.505 110.845 -288.25 110.25 C-286.81700012 107.67060021 -285.21575324 105.93878408 -283 104 C-282.34 104 -281.68 104 -281 104 C-280.731875 103.360625 -280.46375 102.72125 -280.1875 102.0625 C-279 100 -279 100 -276 99 C-275.89042969 98.41605469 -275.78085937 97.83210938 -275.66796875 97.23046875 C-274.65129576 93.83561333 -272.06271221 92.32614744 -269.3125 90.3125 C-268.72581543 89.87534668 -268.13913086 89.43819336 -267.53466797 88.98779297 C-250.64742768 76.55709494 -227.0919795 59.81845835 -206 57 C-205.67 57.66 -205.34 58.32 -205 59 C-205.49588623 59.31001953 -205.99177246 59.62003906 -206.50268555 59.93945312 C-246.3245967 83.75701089 -246.3245967 83.75701089 -270.56640625 121.453125 C-271.55871692 127.28183271 -271.6859278 132.68499367 -270 138.375 C-265.15152273 144.73862642 -258.66329174 146.82000447 -251 148 C-247.36977182 148.29234396 -243.76586537 148.33347868 -240.125 148.3125 C-238.57437866 148.30512817 -238.57437866 148.30512817 -236.99243164 148.29760742 C-209.92217691 147.90252474 -183.96908611 142.18356312 -158 135 C-156.35257812 134.55527344 -156.35257812 134.55527344 -154.671875 134.1015625 C-130.17622125 126.75286637 -105.52790401 117.14297025 -83 105 C-82.2157666 104.58250488 -81.4315332 104.16500977 -80.62353516 103.73486328 C-69.76792568 97.94311928 -59.18169552 91.91632335 -49 85 C-48.41524902 84.60458008 -47.83049805 84.20916016 -47.22802734 83.80175781 C-39.81297066 78.75703892 -32.99051209 73.44664568 -26.44921875 67.296875 C-24.32940156 65.30891246 -22.1635547 63.42865364 -19.9375 61.5625 C-12.19752109 54.79001845 -5.75767435 47.22717663 -0.47265625 38.41015625 C1.43071485 35.29509002 3.41835268 32.58164732 6 30 C7.35508677 22.89853025 7.55824518 16.5596799 4.59375 9.90234375 C3.86873874 7.57944582 4.23071808 6.27241831 5 4 C3.7625 3.2884375 3.7625 3.2884375 2.5 2.5625 C1.2625 1.7890625 1.2625 1.7890625 0 1 C0 0.67 0 0.34 0 0 Z " fill="#FEAE01" transform="translate(316,69)"/>
<path d="M0 0 C1.04099551 3.12298653 1.00841844 4.99459 0.875 8.25 C0.79744102 40.70843386 20.90081472 69.14254928 42 92 C43.31902324 93.4524359 44.63201911 94.91037991 45.9375 96.375 C46.48277344 96.98085937 47.02804688 97.58671875 47.58984375 98.2109375 C49.04368571 100.05542398 49.98178945 101.89160899 51 104 C31.49581889 118.43572211 31.49581889 118.43572211 22.19091797 124.97802734 C19.96475152 126.55107634 17.93215215 128.06784785 16 130 C10.77633727 126.21284452 7.47267938 121.73236699 3.83203125 116.42578125 C2.05939355 113.80150236 2.05939355 113.80150236 -1 112 C-1 111.01 -1 110.02 -1 109 C-1.82302324 107.59327233 -2.70906076 106.22307467 -3.625 104.875 C-17.27781603 82.63672518 -18.98841767 54.46807189 -13.19921875 29.5703125 C-10.80775244 20.09454346 -7.10700161 7.10700161 0 0 Z " fill="#FE7400" transform="translate(110,0)"/>
<path d="M0 0 C0.99 1.485 0.99 1.485 2 3 C1.34 3 0.68 3 0 3 C0 7.95 0 12.9 0 18 C0.99 16.02 1.98 14.04 3 12 C3.433125 12.9590625 3.433125 12.9590625 3.875 13.9375 C4.82823451 16.15206079 4.82823451 16.15206079 7 17 C5.02 17.495 5.02 17.495 3 18 C2.814375 19.6396875 2.814375 19.6396875 2.625 21.3125 C2 25 2 25 0 28 C-0.46340434 29.78015083 -0.87348132 31.57446835 -1.25 33.375 C-2.93628978 40.39979511 -5.75982096 46.56752634 -9 53 C-9.44085938 53.91523437 -9.88171875 54.83046875 -10.3359375 55.7734375 C-16.65745466 68.233769 -25.91702749 78.17183716 -35.6875 88 C-36.48309326 88.80115234 -37.27868652 89.60230469 -38.09838867 90.42773438 C-42.2753929 94.55398468 -46.49892523 98.33176226 -51.27832031 101.74755859 C-52.95357571 102.9662285 -54.5016772 104.26426956 -56.0625 105.625 C-58.62791714 107.69916705 -61.16130223 109.27360145 -64.0390625 110.86328125 C-71.95472662 115.45184352 -78.86893141 121.298999 -85.7734375 127.24609375 C-88.64651617 129.71714626 -91.59445939 132.08102972 -94.5625 134.4375 C-115.2717733 151.38418731 -131.63818586 173.37326813 -136.6875 200.0625 C-136.81705078 200.73732422 -136.94660156 201.41214844 -137.08007812 202.10742188 C-137.39217219 203.73724643 -137.69691073 205.36847689 -138 207 C-136.03296385 206.96364986 -136.03296385 206.96364986 -134 206 C-132.76424253 203.33652806 -132.76424253 203.33652806 -132 200.0625 C-131.66226563 198.87527344 -131.32453125 197.68804687 -130.9765625 196.46484375 C-130.49316406 194.74974609 -130.49316406 194.74974609 -130 193 C-124.73141071 175.916208 -111.50930365 161.30813064 -99 149 C-98.34 149.33 -97.68 149.66 -97 150 C-97.94359375 151.01707031 -97.94359375 151.01707031 -98.90625 152.0546875 C-120.13883193 174.52414609 -120.13883193 174.52414609 -130.1171875 202.86328125 C-130.07851562 203.56839844 -130.03984375 204.27351562 -130 205 C-122.68256048 203.79226726 -117.43348207 202.92017849 -112.5 197 C-110 194 -110 194 -107.71484375 192.6875 C-104.32222293 190.57870547 -101.79079105 187.87378314 -99.0625 185 C-86.37543951 172.01730107 -71.31702049 162.17159925 -56.2512207 152.18212891 C-39.29758752 140.93559384 -23.31340175 129.53731085 -10 114 C-10 116.85046273 -10.44378366 119.2189183 -11 122 C-11 122.99 -11 123.98 -11 125 C-12.70827812 127.07630932 -14.40775056 128.92881769 -16.3125 130.8125 C-16.88137939 131.37855957 -17.45025879 131.94461914 -18.03637695 132.52783203 C-25.67200368 139.89187557 -34.34822622 145.90452499 -43 152 C-43.97195312 152.69996094 -44.94390625 153.39992187 -45.9453125 154.12109375 C-49.88891789 156.9388844 -53.91325954 159.58693665 -58.01147461 162.17480469 C-58.60581299 162.55024414 -59.20015137 162.92568359 -59.8125 163.3125 C-60.39974854 163.6827832 -60.98699707 164.05306641 -61.59204102 164.43457031 C-66.59696079 167.63760955 -71.28637835 171.17655185 -75.91333008 174.90161133 C-79.80064604 178 -79.80064604 178 -82 178 C-82 178.66 -82 179.32 -82 180 C-82.66 180 -83.32 180 -84 180 C-84 180.66 -84 181.32 -84 182 C-85.64593728 183.03376412 -87.31683265 184.02803012 -89 185 C-96.29232956 190.69471673 -101.88861241 197.33291861 -107 205 C-108.32 205 -109.64 205 -111 205 C-111.33 206.32 -111.66 207.64 -112 209 C-112 208.01 -112 207.02 -112 206 C-112.76030518 206.11593506 -113.52061035 206.23187012 -114.30395508 206.35131836 C-117.80630141 206.88341122 -121.30938644 207.41048292 -124.8125 207.9375 C-126.6059082 208.21110352 -126.6059082 208.21110352 -128.43554688 208.49023438 C-144.25342588 210.8607612 -144.25342588 210.8607612 -150 211 C-151 210 -151 210 -151.1640625 206.41015625 C-150.89167795 186.66227628 -140.17651309 168.05801448 -128.6875 152.8125 C-128.0382959 151.9460083 -128.0382959 151.9460083 -127.37597656 151.06201172 C-126.29998591 149.66848087 -125.15531527 148.32850696 -124 147 C-123.34 147 -122.68 147 -122 147 C-121.67 146.01 -121.34 145.02 -121 144 C-119.29296875 142.28125 -119.29296875 142.28125 -117.1875 140.5 C-116.50042969 139.9121875 -115.81335938 139.324375 -115.10546875 138.71875 C-113.72553123 137.59227039 -112.31120846 136.50638705 -110.86328125 135.46875 C-108.74740901 133.95700805 -108.74740901 133.95700805 -107 131 C-105.37768555 129.63183594 -105.37768555 129.63183594 -103.44921875 128.234375 C-102.73427246 127.71166016 -102.01932617 127.18894531 -101.28271484 126.65039062 C-100.152771 125.83344727 -100.152771 125.83344727 -99 125 C-97.50592854 123.90183288 -96.0124473 122.80286234 -94.51953125 121.703125 C-93.75471436 121.14214111 -92.98989746 120.58115723 -92.2019043 120.00317383 C-83.71430423 113.77558048 -75.30460523 107.4695052 -67 101 C-65.78020961 100.06215953 -64.56014728 99.12467268 -63.33984375 98.1875 C-57.77200543 93.89031203 -52.34803076 89.66242226 -47.50390625 84.5390625 C-45.92044592 82.91858621 -44.24969901 81.50071414 -42.5 80.0625 C-38.55327255 76.71825971 -35.28458968 72.98751743 -32 69 C-31.15179688 67.989375 -30.30359375 66.97875 -29.4296875 65.9375 C-22.48839101 57.50834584 -16.99948465 48.69277597 -12 39 C-11.4225 37.90945312 -10.845 36.81890625 -10.25 35.6953125 C-6.25248806 27.68030107 -4.19200707 19.5981887 -2.390625 10.88525391 C-1.87476286 8.39557424 -1.31229121 5.91704804 -0.75 3.4375 C-0.37875 1.7359375 -0.37875 1.7359375 0 0 Z M-2 19 C-1 22 -1 22 -1 22 Z " fill="#FE9900" transform="translate(239,2)"/>
<path d="M0 0 C9.04517158 25.64262233 8.61333382 55.51945034 -2.96484375 80.3671875 C-3.65304786 81.75032712 -4.35196646 83.12819747 -5.0625 84.5 C-5.55484131 85.46220459 -5.55484131 85.46220459 -6.05712891 86.44384766 C-8.47607255 90.83369295 -8.47607255 90.83369295 -11.12280273 91.67382812 C-11.74227783 91.78146484 -12.36175293 91.88910156 -13 92 C-13.10022461 91.12899658 -13.20044922 90.25799316 -13.30371094 89.3605957 C-13.68920394 86.06227039 -14.08572432 82.76563101 -14.48925781 79.46948242 C-14.66021059 78.05528041 -14.82702547 76.6405707 -14.98925781 75.2253418 C-17.22771797 55.7631743 -22.92415181 38.97312812 -36 24 C-37.67407259 22.00607937 -39.3366661 20.00290726 -41 18 C-31.68575124 13.16037583 -22.24791784 8.69539648 -12.625 4.5 C-11.60849365 4.05479004 -10.5919873 3.60958008 -9.54467773 3.15087891 C-8.59407471 2.74015137 -7.64347168 2.32942383 -6.6640625 1.90625 C-5.81279785 1.53822266 -4.9615332 1.17019531 -4.08447266 0.79101562 C-2 0 -2 0 0 0 Z " fill="#FD9900" transform="translate(265,191)"/>
<path d="M0 0 C0.66 0 1.32 0 2 0 C2.84206368 10.1047641 -0.52586185 18.195448 -6.75 26.125 C-8.15061745 27.76385332 -9.56758891 29.3888613 -11 31 C-11.70253906 31.82242188 -12.40507812 32.64484375 -13.12890625 33.4921875 C-28.53685523 51.18789992 -47.86273501 64.25844463 -68 76 C-68.83289551 76.49242187 -69.66579102 76.98484375 -70.52392578 77.4921875 C-91.2396153 89.73133527 -112.63352962 99.17394389 -135 108 C-136.55823486 108.6197168 -136.55823486 108.6197168 -138.14794922 109.25195312 C-152.14464668 114.7902957 -166.2270222 119.29644957 -180.77636719 123.14404297 C-184.10820318 124.02873071 -187.43335685 124.93565011 -190.7578125 125.84765625 C-217.31219146 133.11343685 -243.29070913 139.62567219 -271 139 C-272.26199219 138.97164062 -273.52398437 138.94328125 -274.82421875 138.9140625 C-282.03405933 138.58669677 -287.74746095 137.67649296 -294 134 C-294.93585938 133.49339844 -294.93585938 133.49339844 -295.890625 132.9765625 C-301.89557783 129.29526533 -305.66463369 123.38656642 -307.69921875 116.703125 C-308.82165303 109.8961042 -307.13384037 103.45046528 -303.53125 97.625 C-299.68117978 92.34058989 -299.68117978 92.34058989 -297 91 C-297.01571045 91.89924194 -297.01571045 91.89924194 -297.03173828 92.81665039 C-297.07362837 95.5652233 -297.09943003 98.31372874 -297.125 101.0625 C-297.14175781 102.00544922 -297.15851563 102.94839844 -297.17578125 103.91992188 C-297.34282395 112.94625665 -297.34282395 112.94625665 -293.484375 120.85546875 C-292.91203125 121.29503906 -292.3396875 121.73460937 -291.75 122.1875 C-291.12867188 122.66960937 -290.50734375 123.15171875 -289.8671875 123.6484375 C-288.94292969 124.31746094 -288.94292969 124.31746094 -288 125 C-286.453125 126.1446875 -286.453125 126.1446875 -284.875 127.3125 C-282.13082065 128.92321397 -280.13420999 129.63126941 -277 130 C-276.67 130.99 -276.34 131.98 -276 133 C-271.93631321 133.77403558 -268.13574827 134.0984702 -264 134 C-264.66 133.01 -265.32 132.02 -266 131 C-265.35095703 131.00797607 -264.70191406 131.01595215 -264.03320312 131.02416992 C-231.28252135 131.24789264 -199.11222524 125.45505203 -168.48950195 113.85791016 C-166.06667443 113.02297675 -163.69861023 112.4376267 -161.1875 111.9375 C-157.41756324 111.18485665 -154.41627559 109.78578042 -151 108 C-149.8553125 107.7834375 -149.8553125 107.7834375 -148.6875 107.5625 C-146.0058711 107.00122883 -144.02462063 106.11503595 -141.5625 104.9375 C-138.54520902 103.5264286 -137.15137412 102.99708896 -133.75 103.0625 C-130.78209616 103.31636586 -130.78209616 103.31636586 -128.75 100.6875 C-125.42832185 97.44131453 -122.83173559 96.90419851 -118.44140625 95.74609375 C-113.76229184 94.31615639 -110.740045 92.11006749 -108 88 C-105.375 87.3125 -105.375 87.3125 -103 87 C-103 87.66 -103 88.32 -103 89 C-102.236875 88.835 -101.47375 88.67 -100.6875 88.5 C-98 88 -98 88 -95 88 C-92.99187074 87.01642648 -90.99145391 86.01691264 -89 85 C-88.34 85 -87.68 85 -87 85 C-87 83.68 -87 82.36 -87 81 C-84.36 80.34 -81.72 79.68 -79 79 C-79 78.34 -79 77.68 -79 77 C-78.30777344 76.68289062 -77.61554688 76.36578125 -76.90234375 76.0390625 C-45.98372136 61.29263127 -12.64517337 35.27687992 -0.8125 2.38671875 C-0.544375 1.59910156 -0.27625 0.81148438 0 0 Z " fill="#FDCD12" transform="translate(330,93)"/>
<path d="M0 0 C0.33 0 0.66 0 1 0 C2.64383652 22.60275214 -10.4115057 44.43036393 -24.421875 61.109375 C-39.29257509 77.7825842 -56.94301333 90.54742373 -74.95703125 103.58984375 C-103.61309101 124.40273995 -123.88045848 145.71474697 -135 180 C-136.32 180 -137.64 180 -139 180 C-139.78681472 157.38762916 -124.67038565 135.96023722 -110.01611328 120.22363281 C-108.68239982 118.81102625 -107.34136912 117.40533903 -106 116 C-105.31035156 115.26910156 -104.62070313 114.53820312 -103.91015625 113.78515625 C-99.51275606 109.24387385 -94.77697345 105.23810251 -89.84765625 101.28515625 C-87.98588731 99.79114414 -86.13870964 98.2787162 -84.30859375 96.74609375 C-76.76829353 90.435071 -68.89914204 84.48058305 -60.41796875 79.4765625 C-55.95626208 76.75196618 -52.0252522 73.32223288 -48 70 C-47.36191406 69.47664063 -46.72382813 68.95328125 -46.06640625 68.4140625 C-25.73743667 51.18908613 -10.8001764 31.65023074 -3.0078125 6.01171875 C-2 3 -2 3 0 0 Z " fill="#FEF259" transform="translate(240,29)"/>
<path d="M0 0 C0 2.85046273 -0.44378366 5.2189183 -1 8 C-1 8.99 -1 9.98 -1 11 C-2.70827812 13.07630932 -4.40775056 14.92881769 -6.3125 16.8125 C-7.16581909 17.66158936 -7.16581909 17.66158936 -8.03637695 18.52783203 C-15.67200368 25.89187557 -24.34822622 31.90452499 -33 38 C-33.97195312 38.69996094 -34.94390625 39.39992187 -35.9453125 40.12109375 C-39.88891789 42.9388844 -43.91325954 45.58693665 -48.01147461 48.17480469 C-48.60581299 48.55024414 -49.20015137 48.92568359 -49.8125 49.3125 C-50.6933728 49.8679248 -50.6933728 49.8679248 -51.59204102 50.43457031 C-56.59696079 53.63760955 -61.28637835 57.17655185 -65.91333008 60.90161133 C-69.80064604 64 -69.80064604 64 -72 64 C-72 64.66 -72 65.32 -72 66 C-72.66 66 -73.32 66 -74 66 C-74 66.66 -74 67.32 -74 68 C-75.64593728 69.03376412 -77.31683265 70.02803012 -79 71 C-86.29232956 76.69471673 -91.88861241 83.33291861 -97 91 C-98.32 91 -99.64 91 -101 91 C-101.495 92.98 -101.495 92.98 -102 95 C-102 94.01 -102 93.02 -102 92 C-102.76030518 92.11593506 -103.52061035 92.23187012 -104.30395508 92.35131836 C-107.80630141 92.88341122 -111.30938644 93.41048292 -114.8125 93.9375 C-116.6059082 94.21110352 -116.6059082 94.21110352 -118.43554688 94.49023438 C-134.25342588 96.8607612 -134.25342588 96.8607612 -140 97 C-141 96 -141 96 -141.1640625 92.41015625 C-140.86567594 70.77713041 -128.50343237 50.8305545 -115 35 C-115 41.24728116 -120.47574439 46.44456441 -124.0625 51.28125 C-127.24776513 55.75089623 -129.33259591 59.7754672 -131 65 C-131.66451353 66.33440773 -132.33131543 67.66767753 -133 69 C-135.91368307 76.09481827 -138 84.29822099 -138 92 C-135.69 92 -133.38 92 -131 92 C-130.76925781 90.92363281 -130.53851563 89.84726563 -130.30078125 88.73828125 C-127.56041177 76.31517768 -124.19612692 64.82491857 -117.234375 54.0234375 C-115.85044513 51.92483237 -115.85044513 51.92483237 -115 49 C-114.34 49 -113.68 49 -113 49 C-113 48.01 -113 47.02 -113 46 C-112.01 45.505 -112.01 45.505 -111 45 C-110.690625 44.34 -110.38125 43.68 -110.0625 43 C-109 41 -109 41 -106 40 C-106 39.34 -106 38.68 -106 38 C-105.34 38 -104.68 38 -104 38 C-103.731875 37.38125 -103.46375 36.7625 -103.1875 36.125 C-102 34 -102 34 -99 32 C-100.37127881 35.23341311 -102.32862229 37.69110478 -104.58007812 40.36450195 C-109.67995177 46.46313009 -113.80783062 52.77118373 -117.5 59.8125 C-117.90863281 60.58795166 -118.31726563 61.36340332 -118.73828125 62.16235352 C-122.66000148 69.86725494 -125.08383233 77.58597087 -126.6875 86.0625 C-126.81705078 86.73732422 -126.94660156 87.41214844 -127.08007812 88.10742188 C-127.39217219 89.73724643 -127.69691073 91.36847689 -128 93 C-126.03296385 92.96364986 -126.03296385 92.96364986 -124 92 C-122.76424253 89.33652806 -122.76424253 89.33652806 -122 86.0625 C-121.66226563 84.87527344 -121.32453125 83.68804687 -120.9765625 82.46484375 C-120.49316406 80.74974609 -120.49316406 80.74974609 -120 79 C-114.73141071 61.916208 -101.50930365 47.30813064 -89 35 C-88.01 35.495 -88.01 35.495 -87 36 C-87.6290625 36.67804688 -88.258125 37.35609375 -88.90625 38.0546875 C-110.13883193 60.52414609 -110.13883193 60.52414609 -120.1171875 88.86328125 C-120.07851562 89.56839844 -120.03984375 90.27351563 -120 91 C-112.68256048 89.79226726 -107.43348207 88.92017849 -102.5 83 C-100 80 -100 80 -97.71484375 78.6875 C-94.32222293 76.57870547 -91.79079105 73.87378314 -89.0625 71 C-76.37543951 58.01730107 -61.31702049 48.17159925 -46.2512207 38.18212891 C-29.29758752 26.93559384 -13.31340175 15.53731085 0 0 Z " fill="#F55300" transform="translate(229,116)"/>
<path d="M0 0 C1.30122803 0.02126953 2.60245605 0.04253906 3.94311523 0.06445312 C11.13946497 0.31387074 16.46580513 0.79564821 22.5 4.875 C24.125 8.3125 24.125 8.3125 24.5 11.875 C23.84 13.525 23.18 15.175 22.5 16.875 C-6.87 16.875 -36.24 16.875 -66.5 16.875 C-66.83 16.215 -67.16 15.555 -67.5 14.875 C-44.88151285 5.38982797 -24.70591597 -0.53651324 0 0 Z " fill="#FD7800" transform="translate(204.5,224.125)"/>
<path d="M0 0 C3.63 0 7.26 0 11 0 C11 0.66 11 1.32 11 2 C11.58394531 2.25265625 12.16789062 2.5053125 12.76953125 2.765625 C17.67401057 5.47983772 21.33918304 10.05426117 23.125 15.3125 C23 18 23 18 21.4921875 19.66796875 C20.99976563 20.10753906 20.50734375 20.54710938 20 21 C19.90203125 20.39671875 19.8040625 19.7934375 19.703125 19.171875 C18.79053096 14.29421718 18.12404277 11.16176612 14 8 C14.99 9.485 14.99 9.485 16 11 C16.9735321 14.64309183 17.10778973 18.05345212 17.0625 21.8125 C17.05347656 22.78832031 17.04445313 23.76414062 17.03515625 24.76953125 C17.02355469 25.50558594 17.01195312 26.24164063 17 27 C16.505 25.515 16.505 25.515 16 24 C15.34 24 14.68 24 14 24 C13.79375 25.0725 13.5875 26.145 13.375 27.25 C7.8583932 48.85988045 -10.15746058 64.76064077 -27.26953125 77.6796875 C-28.949412 78.96140238 -30.60241672 80.27087291 -32.25 81.59375 C-40.08324723 87.84239535 -48.32690606 92.9986522 -57 98 C-57.9075 98.57878906 -58.815 99.15757812 -59.75 99.75390625 C-62 101 -62 101 -65 101 C-65 101.66 -65 102.32 -65 103 C-68.96 103.99 -68.96 103.99 -73 105 C-73 106.32 -73 107.64 -73 109 C-74.26691507 109.67408308 -75.53870749 110.33900497 -76.8125 111 C-77.52019531 111.37125 -78.22789062 111.7425 -78.95703125 112.125 C-82.14599412 113.49082731 -85.56369187 113 -89 113 C-89 112.01 -89 111.02 -89 110 C-88.42258057 109.69408936 -87.84516113 109.38817871 -87.25024414 109.07299805 C-77.10822314 103.67804957 -67.0285477 98.23832176 -57.375 92 C-56.68414307 91.55615967 -55.99328613 91.11231934 -55.28149414 90.6550293 C-51.79571444 88.36164958 -48.91486993 86.00520681 -46 83 C-44.14510846 81.57755385 -42.268129 80.18364488 -40.375 78.8125 C-35.42814688 75.14749568 -30.81756322 71.28453291 -26.296875 67.109375 C-24.24064649 65.22100188 -22.13713592 63.42019417 -20 61.625 C-12.24282474 54.82375947 -5.77493513 47.25597286 -0.47265625 38.41015625 C1.43071485 35.29509002 3.41835268 32.58164732 6 30 C7.35508677 22.89853025 7.55824518 16.5596799 4.59375 9.90234375 C3.86873874 7.57944582 4.23071808 6.27241831 5 4 C4.175 3.525625 3.35 3.05125 2.5 2.5625 C1.675 2.046875 0.85 1.53125 0 1 C0 0.67 0 0.34 0 0 Z " fill="#FEBA01" transform="translate(316,69)"/>
<path d="M0 0 C1.74609375 1.7578125 1.74609375 1.7578125 3.4375 4.125 C5.49364859 6.9461243 7.53543693 9.65952726 9.875 12.25 C12.05828509 15.07542776 12.45894013 16.56945021 13 20 C-0.36893204 29 -0.36893204 29 -3 29 C-3.33 29.66 -3.66 30.32 -4 31 C-6.07011313 31.95277173 -8.1825706 32.81472652 -10.3125 33.625 C-11.46363281 34.07101563 -12.61476562 34.51703125 -13.80078125 34.9765625 C-17.15947581 36.05101668 -19.68161913 36.34898317 -23.125 35.4375 C-25.07591269 34.77180827 -25.07591269 34.77180827 -27 36 C-27 35.34 -27 34.68 -27 34 C-30.04913228 32.98888907 -30.04913228 32.98888907 -33 34 C-33 33.01 -33 32.02 -33 31 C-35.31 30.34 -37.62 29.68 -40 29 C-40 27.68 -40 26.36 -40 25 C-38.15625 23.24609375 -38.15625 23.24609375 -35.5 21.4375 C-34.50226563 20.74785156 -33.50453125 20.05820313 -32.4765625 19.34765625 C-31.92258789 18.97398926 -31.36861328 18.60032227 -30.79785156 18.21533203 C-28.8625093 16.90705748 -26.94230267 15.57840826 -25.0234375 14.24609375 C-21.6278707 11.89167355 -18.21741824 9.56000207 -14.80175781 7.23486328 C-13.23094736 6.15828344 -11.67290482 5.06312115 -10.1171875 3.96484375 C-9.33601563 3.41957031 -8.55484375 2.87429687 -7.75 2.3125 C-7.10546875 1.85488281 -6.4609375 1.39726562 -5.796875 0.92578125 C-4 0 -4 0 0 0 Z " fill="#FE9000" transform="translate(227,143)"/>
<path d="M0 0 C1.2409845 0.00022659 2.48196899 0.00045319 3.76055908 0.00068665 C5.10958214 0.01600528 6.4586015 0.03165324 7.80761719 0.04760742 C9.19195089 0.05320542 10.57629055 0.05747456 11.96063232 0.06047058 C15.59725466 0.07190345 19.2335153 0.10135671 22.86999512 0.13458252 C26.58352771 0.1653173 30.29711896 0.17898317 34.01074219 0.1940918 C41.29215675 0.22622835 48.57327371 0.2774053 55.85449219 0.34057617 C54.52813121 3.78123533 53.17219069 6.5389827 50.91699219 9.46557617 C50.41296875 10.1281543 49.90894531 10.79073242 49.38964844 11.47338867 C45.48158483 16.22670777 45.48158483 16.22670777 42.75653076 16.7215271 C41.54576874 16.72510727 41.54576874 16.72510727 40.31054688 16.72875977 C39.39239197 16.73821625 38.47423706 16.74767273 37.52825928 16.75741577 C36.53763489 16.75134308 35.5470105 16.74527039 34.52636719 16.73901367 C33.50399963 16.74188385 32.48163208 16.74475403 31.42828369 16.74771118 C29.26289314 16.74975389 27.09748422 16.74420967 24.93212891 16.73168945 C21.63108508 16.71570494 18.33127797 16.73149752 15.03027344 16.75073242 C12.924802 16.74874874 10.81933133 16.74490248 8.71386719 16.73901367 C7.73133972 16.74508636 6.74881226 16.75115906 5.73651123 16.75741577 C0.0100926 16.69923582 -4.09861182 16.11795604 -9.14550781 13.34057617 C-11.20800781 10.96557617 -11.20800781 10.96557617 -12.14550781 8.34057617 C-11.50161373 5.33573713 -10.65784856 3.82930914 -8.4397583 1.71342468 C-5.45928497 -0.07005031 -3.4634062 -0.02111833 0 0 Z " fill="#FEA400" transform="translate(154.1455078125,56.659423828125)"/>
<path d="M0 0 C2.42857143 6.28571429 2.42857143 6.28571429 1 10 C0.34 8.02 -0.32 6.04 -1 4 C-1.66 4.33 -2.32 4.66 -3 5 C-3.1340625 5.6290625 -3.268125 6.258125 -3.40625 6.90625 C-4.36087702 10.27256633 -6.76490183 11.07141388 -9.6640625 12.76171875 C-19.54574132 18 -19.54574132 18 -23 18 C-22.49210937 19.09054688 -21.98421875 20.18109375 -21.4609375 21.3046875 C-8.2878898 50.01056599 -8.2878898 50.01056599 -7.68359375 64.08203125 C-7.64169922 65.01337891 -7.59980469 65.94472656 -7.55664062 66.90429688 C-7.51732422 67.86400391 -7.47800781 68.82371094 -7.4375 69.8125 C-7.39431641 70.79154297 -7.35113281 71.77058594 -7.30664062 72.77929688 C-7.2009774 75.18607027 -7.09887673 77.59293983 -7 80 C-6.01 80 -5.02 80 -4 80 C-5.31464361 84.60125265 -7.03331448 88.22421843 -10 92 C-10.99 92 -11.98 92 -13 92 C-13.10022461 91.12899658 -13.20044922 90.25799316 -13.30371094 89.3605957 C-13.68920394 86.06227039 -14.08572432 82.76563101 -14.48925781 79.46948242 C-14.66021059 78.05528041 -14.82702547 76.6405707 -14.98925781 75.2253418 C-17.22771797 55.7631743 -22.92415181 38.97312812 -36 24 C-37.67407259 22.00607937 -39.3366661 20.00290726 -41 18 C-31.68575124 13.16037583 -22.24791784 8.69539648 -12.625 4.5 C-11.60849365 4.05479004 -10.5919873 3.60958008 -9.54467773 3.15087891 C-8.59407471 2.74015137 -7.64347168 2.32942383 -6.6640625 1.90625 C-5.81279785 1.53822266 -4.9615332 1.17019531 -4.08447266 0.79101562 C-2 0 -2 0 0 0 Z " fill="#FC5E00" transform="translate(265,191)"/>
<path d="M0 0 C2.04395463 0.08443441 4.08773278 0.14572816 6.13256836 0.20458984 C21.72670778 0.7710927 21.72670778 0.7710927 26.58374023 5.02099609 C28.57705776 8.75846646 28.22216844 10.81104975 27.08374023 14.83349609 C23.57415193 17.17322163 21.68368169 17.17740978 17.52124023 17.39599609 C13.14353358 17.50156572 13.14353358 17.50156572 9.08374023 18.83349609 C8.25487305 18.68912109 7.42600586 18.54474609 6.57202148 18.39599609 C1.28187272 17.54293739 -3.96335069 17.79162767 -9.30883789 17.87255859 C-24.86506286 18.01473277 -24.86506286 18.01473277 -29.47875977 14.70849609 C-31.91625977 11.83349609 -31.91625977 11.83349609 -32.54125977 8.20849609 C-31.91625977 4.83349609 -31.91625977 4.83349609 -30.26806641 3.19775391 C-21.76416787 -1.73526644 -9.52421684 -0.40065398 0 0 Z " fill="#FD7800" transform="translate(211.916259765625,246.16650390625)"/>
<path d="M0 0 C0.33 0 0.66 0 1 0 C1.01417969 0.83402344 1.02835937 1.66804687 1.04296875 2.52734375 C1.35907892 9.98583509 1.92360019 16.23822814 7 22 C12.7259605 26.63672892 18.75049351 29.05227165 26 30 C27.12341797 30.16435547 27.12341797 30.16435547 28.26953125 30.33203125 C56.6843546 33.68811275 88.58870927 30.81855305 116 23 C118.24703305 22.38489039 120.4968632 21.7798613 122.75 21.1875 C123.67296875 20.93355469 124.5959375 20.67960937 125.546875 20.41796875 C128.08345237 19.9857812 129.58942032 20.17206726 132 21 C130.35451172 21.24556641 130.35451172 21.24556641 128.67578125 21.49609375 C122.56648417 22.68816893 117.49430639 23.84841341 113.82421875 29.1328125 C108.77555685 41.98971553 110.53465347 57.5078143 111 71 C107.76513406 70.29822123 106.10818805 69.63523506 104 67 C104 66.34 104 65.68 104 65 C103.34 65 102.68 65 102 65 C94.98939011 55.40490479 89.88129503 44.52518012 87 33 C86.34 33 85.68 33 85 33 C85 32.34 85 31.68 85 31 C84.08863281 31.13277344 83.17726563 31.26554687 82.23828125 31.40234375 C26.07179138 39.05887023 26.07179138 39.05887023 8 26 C2.64367246 21.41586613 0.05099458 15.93656421 -1 9 C-0.94447866 5.8722978 -0.54927228 3.09589832 0 0 Z " fill="#E35002" transform="translate(6,212)"/>
<path d="M0 0 C0.82458206 -0.00637985 1.64916412 -0.0127597 2.49873352 -0.01933289 C3.83776985 -0.02100212 3.83776985 -0.02100212 5.20385742 -0.02270508 C6.12140305 -0.02603348 7.03894867 -0.02936188 7.98429871 -0.03279114 C9.92865497 -0.03786002 11.87301995 -0.04019948 13.81738281 -0.04003906 C16.78684945 -0.04221982 19.75594122 -0.06036008 22.7253418 -0.0793457 C24.6140124 -0.0822808 26.50268477 -0.08426482 28.39135742 -0.08520508 C29.27797562 -0.09239059 30.16459381 -0.09957611 31.07807922 -0.10697937 C35.4640682 -0.09080019 39.05304874 -0.02180154 42.99682617 2.14526367 C45.1321731 4.76591672 44.99394703 6.22587952 44.87182617 9.64526367 C43.87993622 13.61282348 43.25703484 14.75065178 39.99682617 17.14526367 C37.1638971 17.46223608 34.75794268 17.54724162 31.94213867 17.42260742 C31.16297089 17.40186661 30.3838031 17.38112579 29.58102417 17.35975647 C27.93496169 17.31123507 26.28917032 17.25260473 24.64379883 17.18457031 C22.13786128 17.08341098 19.63297026 17.01908448 17.12573242 16.9597168 C15.52279527 16.90787763 13.91992525 16.85391026 12.31713867 16.79760742 C11.57319855 16.77866928 10.82925842 16.75973114 10.06277466 16.74021912 C4.53672701 16.48472959 0.27936781 15.27038865 -3.81567383 11.45776367 C-5.55763952 8.06551469 -5.68717405 4.93726102 -6.00317383 1.14526367 C-3.74469983 0.01602667 -2.50590663 0.01314612 0 0 Z " fill="#FE9200" transform="translate(129.003173828125,35.854736328125)"/>
<path d="M0 0 C0.33 0.66 0.66 1.32 1 2 C2.21816406 1.88140625 3.43632812 1.7628125 4.69140625 1.640625 C6.31500899 1.50923518 7.93871302 1.37909296 9.5625 1.25 C10.76229492 1.12818359 10.76229492 1.12818359 11.98632812 1.00390625 C17.9562417 0.56530035 21.07447515 1.58849554 26 5 C25 8 25 8 22.56640625 9.31640625 C21.07947266 9.93322266 21.07947266 9.93322266 19.5625 10.5625 C15.42527401 12.24357549 15.42527401 12.24357549 12 15 C6.46126492 17.55633927 0.96211333 17.19095737 -5 17 C-5.33 17.66 -5.66 18.32 -6 19 C-6 18.34 -6 17.68 -6 17 C-12.435 17.495 -12.435 17.495 -19 18 C-19 17.01 -19 16.02 -19 15 C-16.98828125 13.31640625 -16.98828125 13.31640625 -14.3125 11.5625 C-9.94000835 8.63101338 -5.73384885 5.73384885 -2 2 C-1.34 1.34 -0.68 0.68 0 0 Z " fill="#FE8A00" transform="translate(170,177)"/>
<path d="M0 0 C0.66 0.33 1.32 0.66 2 1 C2.25086464 8.40050702 1.41801254 12.63986435 -3.5625 18.375 C-12.17646777 28.93102596 -17.95190237 40.01032126 -22 53 C-22.66390932 55.00091701 -23.32972757 57.00120553 -24 59 C-25.32 59 -26.64 59 -28 59 C-28.64746451 40.39243305 -17.65269384 20.79120319 -6 7 C-5.06027344 5.87078125 -5.06027344 5.87078125 -4.1015625 4.71875 C-2.75623553 3.12709556 -1.38236668 1.55959317 0 0 Z " fill="#FEEA47" transform="translate(129,150)"/>
<path d="M0 0 C0 2.85046273 -0.44378366 5.2189183 -1 8 C-1 8.99 -1 9.98 -1 11 C-2.70827812 13.07630932 -4.40775056 14.92881769 -6.3125 16.8125 C-7.16581909 17.66158936 -7.16581909 17.66158936 -8.03637695 18.52783203 C-15.67283408 25.89267644 -24.35068092 31.89967904 -33 38 C-34.06476563 38.76957031 -35.12953125 39.53914063 -36.2265625 40.33203125 C-40.34944556 43.29029326 -44.363521 45.92578571 -49 48 C-49 46 -49 44 -49 42 C-49.66 41.67 -50.32 41.34 -51 41 C-49.9584375 40.34515625 -48.916875 39.6903125 -47.84375 39.015625 C-30.7293305 28.15884753 -14.07485134 16.6738279 -1 1 C-0.67 0.67 -0.34 0.34 0 0 Z " fill="#FA5900" transform="translate(229,116)"/>
<path d="M0 0 C0.66 0 1.32 0 2 0 C2.84206368 10.1047641 -0.52586185 18.195448 -6.75 26.125 C-8.15061745 27.76385332 -9.56758891 29.3888613 -11 31 C-12.05380859 32.23363281 -12.05380859 32.23363281 -13.12890625 33.4921875 C-26.07930542 48.36545453 -43.72422316 64.00642066 -62 72 C-62.66 71.67 -63.32 71.34 -64 71 C-60.09877103 66.87239411 -55.8889712 63.53770606 -51.3125 60.1875 C-49.87552994 59.12083108 -48.43933 58.05312389 -47.00390625 56.984375 C-46.31312988 56.47068359 -45.62235352 55.95699219 -44.91064453 55.42773438 C-24.82952503 40.42206266 -8.24051923 24.20652522 0 0 Z " fill="#FDF25D" transform="translate(330,93)"/>
<path d="M0 0 C1.74506836 0.00966797 1.74506836 0.00966797 3.52539062 0.01953125 C4.74033203 0.03628906 5.95527344 0.05304688 7.20703125 0.0703125 C8.43357422 0.07933594 9.66011719 0.08835937 10.92382812 0.09765625 C13.9559242 0.12125233 16.98763063 0.15417409 20.01953125 0.1953125 C18.9140683 5.28598258 15.96029005 7.91134683 12.01953125 11.1953125 C9.14453125 12.5078125 9.14453125 12.5078125 7.01953125 13.1953125 C6.68953125 13.8553125 6.35953125 14.5153125 6.01953125 15.1953125 C-4.65217217 15.31276836 -4.65217217 15.31276836 -7.703125 12.74609375 C-9.38285392 9.97062769 -9.9896327 7.60769019 -9.91796875 4.3828125 C-7.91299352 -0.29546303 -4.50076705 -0.04390992 0 0 Z " fill="#FE8B00" transform="translate(168.98046875,78.8046875)"/>
<path d="M0 0 C-3.12942164 3.46857079 -6.59203699 5.6240192 -10.625 7.875 C-31.19465979 19.77497282 -51.58376712 36.61460906 -64 57 C-64.33 56.34 -64.66 55.68 -65 55 C-63.6015625 52.28515625 -63.6015625 52.28515625 -61.625 49.0625 C-58.94779369 44.7011941 -58.94779369 44.7011941 -57 40 C-55.515 39.071875 -55.515 39.071875 -54 38.125 C-53.01 37.42375 -52.02 36.7225 -51 36 C-50.896875 35.175 -50.79375 34.35 -50.6875 33.5 C-50.460625 32.675 -50.23375 31.85 -50 31 C-47.80357234 29.75373722 -45.59519202 28.86402833 -43.2265625 27.9921875 C-40.90884381 26.95937952 -39.73944223 25.8004753 -38 24 C-37.34 24 -36.68 24 -36 24 C-36 23.34 -36 22.68 -36 22 C-35.34 22 -34.68 22 -34 22 C-33.67 21.01 -33.34 20.02 -33 19 C-30.1798062 17.28773948 -27.07044129 16.1940605 -24 15 C-24 14.34 -24 13.68 -24 13 C-23.01 13 -22.02 13 -21 13 C-21.495 12.01 -21.495 12.01 -22 11 C-24.47266765 11.34444881 -24.47266765 11.34444881 -27 12 C-27.33 12.66 -27.66 13.32 -28 14 C-29.65 14 -31.3 14 -33 14 C-33.309375 14.928125 -33.309375 14.928125 -33.625 15.875 C-35.5823523 18.89999901 -37.54988476 18.91048993 -41 20 C-46.70223205 22.8093108 -52.24185195 25.73407416 -57 30 C-57.66 29.67 -58.32 29.34 -59 29 C-48.92095427 20.80173314 -37.45598941 15.01138875 -26 9 C-24.89978516 8.41992188 -24.89978516 8.41992188 -23.77734375 7.828125 C-5.41176331 -1.8039211 -5.41176331 -1.8039211 0 0 Z " fill="#FB8900" transform="translate(111,127)"/>
<path d="M0 0 C8.85872209 7.93966158 14.23884112 27.74934019 15.20532227 39.49536133 C15.24197998 40.3489624 15.2786377 41.20256348 15.31640625 42.08203125 C15.37924805 43.47905273 15.37924805 43.47905273 15.44335938 44.90429688 C15.48267578 45.86400391 15.52199219 46.82371094 15.5625 47.8125 C15.60568359 48.79154297 15.64886719 49.77058594 15.69335938 50.77929688 C15.7990226 53.18607027 15.90112327 55.59293983 16 58 C16.99 58 17.98 58 19 58 C17.68535639 62.60125265 15.96668552 66.22421843 13 70 C12.01 70 11.02 70 10 70 C9.88930176 69.11852295 9.77860352 68.2370459 9.66455078 67.32885742 C9.24572204 64.00546665 8.82417335 60.68244295 8.40087891 57.35961914 C8.21947804 55.93136825 8.03910948 54.50298579 7.85986328 53.07446289 C6.80448924 44.66979419 5.64195399 36.31474011 4 28 C6.1385485 30.1385485 6.42655063 31.13275314 7 34 C7.66 33.01 8.32 32.02 9 31 C9.66 31 10.32 31 11 31 C6.90201124 16.39753492 6.90201124 16.39753492 0 3 C0 2.01 0 1.02 0 0 Z " fill="#F75400" transform="translate(242,213)"/>
<path d="M0 0 C1.12631836 0.07250977 1.12631836 0.07250977 2.27539062 0.14648438 C3.4287793 0.2305957 3.4287793 0.2305957 4.60546875 0.31640625 C5.78786133 0.3947168 5.78786133 0.3947168 6.99414062 0.47460938 C8.92748404 0.60349894 10.86029039 0.74040119 12.79296875 0.87890625 C12.79296875 1.20890625 12.79296875 1.53890625 12.79296875 1.87890625 C11.84035156 1.93949219 10.88773438 2.00007812 9.90625 2.0625 C8.65199219 2.14628906 7.39773437 2.23007813 6.10546875 2.31640625 C4.24341797 2.43822266 4.24341797 2.43822266 2.34375 2.5625 C-3.71498932 2.89465966 -3.71498932 2.89465966 -8.45703125 6.19140625 C-9.99942849 8.56008772 -10.79866038 10.12240289 -11.20703125 12.87890625 C-8.73203125 13.37390625 -8.73203125 13.37390625 -6.20703125 13.87890625 C-6.20703125 14.20890625 -6.20703125 14.53890625 -6.20703125 14.87890625 C-18.877153 15.9998017 -31.49571101 15.98658719 -44.20703125 15.87890625 C-44.53703125 15.21890625 -44.86703125 14.55890625 -45.20703125 13.87890625 C-36.60280722 10.27068327 -27.93222163 7.02058022 -19.08203125 4.06640625 C-18.18202393 3.76468506 -17.2820166 3.46296387 -16.35473633 3.15209961 C-5.625786 -0.38650438 -5.625786 -0.38650438 0 0 Z " fill="#F25200" transform="translate(182.20703125,225.12109375)"/>
<path d="M0 0 C0.99 0.495 0.99 0.495 2 1 C-16.8423096 11.83180127 -37.2301271 19.7516671 -57.44628906 27.6171875 C-59.68424482 28.48801612 -61.92078493 29.36250029 -64.15527344 30.2421875 C-75.9566088 34.88023292 -87.88626177 39.06846597 -99.96148682 42.93182373 C-101.39094524 43.38981339 -102.81916172 43.8516997 -104.24603271 44.31768799 C-106.24583578 44.96793504 -108.25055095 45.59977381 -110.2578125 46.2265625 C-111.4142627 46.59346191 -112.57071289 46.96036133 -113.76220703 47.33837891 C-117.21216684 48.04335486 -119.59737347 47.80603783 -123 47 C-123 46.67 -123 46.34 -123 46 C-120.69 46 -118.38 46 -116 46 C-116 45.34 -116 44.68 -116 44 C-113 43 -113 43 -110 44 C-109.67 43.34 -109.34 42.68 -109 42 C-107.20703125 41.2890625 -107.20703125 41.2890625 -104.8125 40.625 C-103.92046875 40.37363281 -103.0284375 40.12226563 -102.109375 39.86328125 C-100.57023437 39.43595703 -100.57023437 39.43595703 -99 39 C-97.78828125 38.64292969 -96.5765625 38.28585938 -95.328125 37.91796875 C-85.38847173 35 -85.38847173 35 -82 35 C-81.505 34.01 -81.505 34.01 -81 33 C-78.625 31.8125 -78.625 31.8125 -76 31 C-75.01 31.33 -74.02 31.66 -73 32 C-72.67 31.34 -72.34 30.68 -72 30 C-71.01 29.34 -70.02 28.68 -69 28 C-68.01 28.33 -67.02 28.66 -66 29 C-65.67 28.34 -65.34 27.68 -65 27 C-62.9609375 26.2890625 -62.9609375 26.2890625 -60.375 25.625 C-57.03167137 24.69153503 -54.20246112 23.70208356 -51.25 21.875 C-48 20 -48 20 -45.16967773 19.53759766 C-41.78778921 18.96400769 -39.15749088 17.93168181 -36.03515625 16.5234375 C-34.91165771 16.02030029 -33.78815918 15.51716309 -32.63061523 14.9987793 C-30.86439819 14.19500854 -30.86439819 14.19500854 -29.0625 13.375 C-27.85859619 12.83464111 -26.65469238 12.29428223 -25.41430664 11.73754883 C-20.24111581 9.40858521 -15.08135085 7.05629162 -9.9609375 4.61328125 C-9.26347412 4.28086426 -8.56601074 3.94844727 -7.84741211 3.60595703 C-6.06935927 2.75090976 -4.29805727 1.8818632 -2.52734375 1.01171875 C-1.69332031 0.67785156 -0.85929687 0.34398437 0 0 Z " fill="#F87000" transform="translate(257,185)"/>
<path d="M0 0 C0.33 0 0.66 0 1 0 C0.9278125 0.59941406 0.855625 1.19882812 0.78125 1.81640625 C-1.12816676 20.45973932 -1.17864132 38.61299473 5.625 56.28515625 C6.8410912 59.57067537 7.32153402 61.57030383 7 65 C7.66 65 8.32 65 9 65 C9.27972656 65.59425781 9.55945313 66.18851562 9.84765625 66.80078125 C16.42343707 80.46608472 16.42343707 80.46608472 27 91 C26.67 91.99 26.34 92.98 26 94 C22.09437685 92.69812562 21.308049 90.92403349 19 87.5625 C16.03486238 83.25342199 16.03486238 83.25342199 12 80 C12 79.01 12 78.02 12 77 C11.17697676 75.59327233 10.29093924 74.22307467 9.375 72.875 C-3.09588204 52.56190845 -5.89701187 26.121211 -1.53515625 3.01953125 C-1 1 -1 1 0 0 Z " fill="#F45801" transform="translate(97,32)"/>
<path d="M0 0 C0.66 0.33 1.32 0.66 2 1 C-0.97 3.97 -0.97 3.97 -4 7 C-3.67 7.66 -3.34 8.32 -3 9 C-3.66 9 -4.32 9 -5 9 C-4.67 10.32 -4.34 11.64 -4 13 C-5.5159375 14.2065625 -5.5159375 14.2065625 -7.0625 15.4375 C-12.27853156 19.89020987 -16.21266157 25.31899236 -20 31 C-23.625 31.1875 -23.625 31.1875 -27 31 C-26.49080812 26.62094986 -25.67804488 23.53884503 -23 20 C-22.27296875 19.59007812 -21.5459375 19.18015625 -20.796875 18.7578125 C-17.16975234 16.4781963 -14.45957347 13.63537501 -11.5 10.5625 C-7.82904205 6.77655845 -4.21336553 3.19932793 0 0 Z " fill="#D83C01" transform="translate(152,176)"/>
<path d="M0 0 C0 0.66 0 1.32 0 2 C-9.97062373 5.79583395 -20.19448771 8.3766192 -30.5625 10.8125 C-31.22783752 10.97106476 -31.89317505 11.12962952 -32.57867432 11.29299927 C-34.51023053 11.75139556 -36.44454263 12.19813013 -38.37890625 12.64453125 C-39.5088501 12.90596924 -40.63879395 13.16740723 -41.80297852 13.43676758 C-44.94214563 13.98980756 -47.82023532 14.10416108 -51 14 C-51 13.67 -51 13.34 -51 13 C-49.35 12.67 -47.7 12.34 -46 12 C-48.97 11.67 -51.94 11.34 -55 11 C-55 10.67 -55 10.34 -55 10 C-54.14172607 9.84966309 -54.14172607 9.84966309 -53.26611328 9.69628906 C-29.48442966 5.56557181 -29.48442966 5.56557181 -6.1640625 -0.58203125 C-3.7649074 -1.04540597 -2.29593858 -0.77055473 0 0 Z " fill="#FDEF62" transform="translate(151,213)"/>
<path d="M0 0 C-4.92892793 5.54697532 -13.03156886 6.33888711 -20.03125 7.5703125 C-21.99280014 7.8127786 -21.99280014 7.8127786 -23 9 C-24.5778125 9.2165625 -24.5778125 9.2165625 -26.1875 9.4375 C-29.903607 9.8684987 -29.903607 9.8684987 -32.9375 11 C-35.46762789 11.82616421 -37.45473176 12.22652618 -40.0625 12.5 C-43.84758357 12.80487016 -43.84758357 12.80487016 -46.5625 14.0625 C-49.76389827 15.29380703 -52.58557557 15 -56 15 C-56.8971875 15.31710938 -57.794375 15.63421875 -58.71875 15.9609375 C-62.51300078 17.16245025 -66.11855346 17.45332918 -70.0625 17.625 C-71.16936157 17.68192017 -71.16936157 17.68192017 -72.29858398 17.73999023 C-78.86743041 18.05238765 -85.42429687 18.10292405 -92 18 C-88.76231857 16.11802871 -86.07809723 15.63617287 -82.36328125 15.32421875 C-80.68093384 15.17001465 -80.68093384 15.17001465 -78.96459961 15.01269531 C-77.75940674 14.90538086 -76.55421387 14.79806641 -75.3125 14.6875 C-50.8722092 12.26595668 -23.87747231 -0.64533709 0 0 Z " fill="#FE7203" transform="translate(151,216)"/>
<path d="M0 0 C-3.36991049 4.26972952 -6.97513878 5.0032206 -12.125 5.75 C-12.90601074 5.87286377 -13.68702148 5.99572754 -14.49169922 6.12231445 C-22.98795919 7.33933712 -31.44018451 7.2731856 -40 7 C-40 6.34 -40 5.68 -40 5 C-38.80375 4.71125 -37.6075 4.4225 -36.375 4.125 C-33.92579696 3.5190996 -31.62550184 2.86381885 -29.25 2 C-19.34823673 -1.04669639 -10.24796486 -1.12181864 0 0 Z " fill="#FEDC2A" transform="translate(107,224)"/>
<path d="M0 0 C-0.7902028 4.21131611 -2.52416058 6.5437125 -5.546875 9.515625 C-10.4791867 12.50014482 -16.37966603 12.05456635 -22 12 C-22.33 11.34 -22.66 10.68 -23 10 C-21.625 8 -21.625 8 -20 6 C-19.34 6 -18.68 6 -18 6 C-17.67 4.68 -17.34 3.36 -17 2 C-14.91727106 1.66291092 -12.83378963 1.33046884 -10.75 1 C-9.58984375 0.814375 -8.4296875 0.62875 -7.234375 0.4375 C-4 0 -4 0 0 0 Z " fill="#FEA100" transform="translate(189,79)"/>
<path d="M0 0 C2.42857143 6.28571429 2.42857143 6.28571429 1 10 C0.34 8.02 -0.32 6.04 -1 4 C-1.99 4.495 -1.99 4.495 -3 5 C-3.13277344 5.62519531 -3.26554687 6.25039062 -3.40234375 6.89453125 C-4.37081904 10.30634943 -6.79174801 11.23615875 -9.73046875 12.95703125 C-13.23111785 14.56576328 -16.15414172 14.8673842 -20 15 C-20.66 14.67 -21.32 14.34 -22 14 C-22.625 11.4375 -22.625 11.4375 -23 9 C-19.54418685 7.49414477 -16.08495247 5.99631711 -12.625 4.5 C-11.64015625 4.07074219 -10.6553125 3.64148438 -9.640625 3.19921875 C-8.69960938 2.79316406 -7.75859375 2.38710937 -6.7890625 1.96875 C-5.91975098 1.59169922 -5.05043945 1.21464844 -4.15478516 0.82617188 C-2 0 -2 0 0 0 Z " fill="#FD7200" transform="translate(265,191)"/>
<path d="M0 0 C0.99 0.495 0.99 0.495 2 1 C-9.0848921 8.23911321 -20.70351208 14.13171537 -33 19 C-35.94065897 20.20068187 -38.87630082 21.4134615 -41.8125 22.625 C-42.51810059 22.9144751 -43.22370117 23.2039502 -43.95068359 23.50219727 C-47.16997588 24.82387745 -50.37384198 26.16355587 -53.5625 27.55859375 C-57.69060297 29.28958238 -61.88655766 30.68644203 -66.13964844 32.07470703 C-66.79352539 32.28853027 -67.44740234 32.50235352 -68.12109375 32.72265625 C-68.76933105 32.93422363 -69.41756836 33.14579102 -70.08544922 33.36376953 C-71.90925787 33.96984519 -73.72258749 34.6071883 -75.53515625 35.24609375 C-76.59605469 35.61863281 -77.65695313 35.99117187 -78.75 36.375 C-79.69359375 36.71273437 -80.6371875 37.05046875 -81.609375 37.3984375 C-84 38 -84 38 -87 37 C-81.15580318 34.58892532 -75.25959298 32.3419418 -69.31640625 30.1875 C-46.46639036 21.8881721 -23.67645622 13.36758828 -2.52734375 1.23046875 C-1.69332031 0.82441406 -0.85929687 0.41835937 0 0 Z " fill="#FE8200" transform="translate(250,175)"/>
<path d="M0 0 C0.99 0.33 1.98 0.66 3 1 C2 4 2 4 0.2578125 5.02734375 C-0.79792969 5.47787109 -0.79792969 5.47787109 -1.875 5.9375 C-5.30540382 7.5217007 -6.780721 8.93528138 -9 12 C-9.721875 12.12375 -10.44375 12.2475 -11.1875 12.375 C-14.94996243 13.21110276 -17.17218652 15.22885135 -20.1328125 17.625 C-22 19 -22 19 -25 20 C-25.33 22.31 -25.66 24.62 -26 27 C-25.01 27 -24.02 27 -23 27 C-23 27.66 -23 28.32 -23 29 C-24.258125 28.87625 -25.51625 28.7525 -26.8125 28.625 C-27.52019531 28.55539063 -28.22789062 28.48578125 -28.95703125 28.4140625 C-31 28 -31 28 -34 26 C-32.59975338 22.63606452 -31.12568808 21.08639325 -28.10546875 19.08203125 C-27.32042969 18.55367676 -26.53539062 18.02532227 -25.7265625 17.48095703 C-24.88867188 16.93036621 -24.05078125 16.37977539 -23.1875 15.8125 C-21.4617898 14.66082994 -19.73653139 13.50848262 -18.01171875 12.35546875 C-17.1614209 11.79005371 -16.31112305 11.22463867 -15.43505859 10.64208984 C-13.24783899 9.16713105 -11.09582479 7.65727202 -8.95703125 6.11328125 C-8.36575439 5.68877686 -7.77447754 5.26427246 -7.1652832 4.8269043 C-5.59610075 3.69435991 -4.03224449 2.55444636 -2.46875 1.4140625 C-1.6540625 0.94742188 -0.839375 0.48078125 0 0 Z " fill="#FD7400" transform="translate(220,145)"/>
<path d="M0 0 C-2 2 -2 2 -4.0625 2.75 C-6.33005361 3.91344041 -6.33005361 3.91344041 -6.875 7 C-6.91625 7.99 -6.9575 8.98 -7 10 C-3.84451484 13.15548516 -0.69076432 13.1250944 3.62915039 13.12939453 C4.99560448 13.13412277 4.99560448 13.13412277 6.3896637 13.13894653 C7.36580124 13.1369223 8.34193878 13.13489807 9.34765625 13.1328125 C10.35589951 13.13376923 11.36414276 13.13472595 12.40293884 13.13571167 C14.53205427 13.13639157 16.66117177 13.13455055 18.7902832 13.13037109 C22.05359536 13.12501462 25.31677022 13.13032541 28.58007812 13.13671875 C30.6484378 13.13605804 32.7167974 13.13477704 34.78515625 13.1328125 C35.76331802 13.13483673 36.7414798 13.13686096 37.74928284 13.13894653 C38.65710007 13.13579437 39.5649173 13.13264221 40.50024414 13.12939453 C41.29870255 13.12859894 42.09716095 13.12780334 42.91981506 13.12698364 C45.19654865 13.07772601 45.19654865 13.07772601 48 12 C48 9.69 48 7.38 48 5 C48.66 5.33 49.32 5.66 50 6 C49.6875 9.375 49.6875 9.375 49 13 C45.4904117 15.33972554 43.59994145 15.34391369 39.4375 15.5625 C35.05979334 15.66806962 35.05979334 15.66806962 31 17 C30.17113281 16.855625 29.34226563 16.71125 28.48828125 16.5625 C23.19813249 15.7094413 17.95290908 15.95813158 12.60742188 16.0390625 C-2.9488031 16.18123668 -2.9488031 16.18123668 -7.5625 12.875 C-10 10 -10 10 -10.625 6.375 C-10 3 -10 3 -8.375 1.0625 C-5.43969547 -0.25066255 -3.18136394 -0.21691118 0 0 Z " fill="#F36302" transform="translate(190,248)"/>
<path d="M0 0 C0 2.85046273 -0.44378366 5.2189183 -1 8 C-1 8.99 -1 9.98 -1 11 C-2.81626322 13.46576962 -5.07434555 15.53746889 -7.25 17.6875 C-7.83652344 18.29400391 -8.42304688 18.90050781 -9.02734375 19.52539062 C-9.60097656 20.09837891 -10.17460937 20.67136719 -10.765625 21.26171875 C-11.55114746 22.05002075 -11.55114746 22.05002075 -12.35253906 22.85424805 C-14 24 -14 24 -18 24 C-18.33 23.01 -18.66 22.02 -19 21 C-17.5382106 18.56368433 -15.76164846 16.76330081 -13.74609375 14.76171875 C-10.80876045 11.80767231 -7.99078593 8.76774609 -5.1875 5.6875 C-4.68541016 5.13771484 -4.18332031 4.58792969 -3.66601562 4.02148438 C-2.44296032 2.68194761 -1.22132992 1.34111008 0 0 Z " fill="#FD7B00" transform="translate(229,116)"/>
<path d="M0 0 C0.33 0.66 0.66 1.32 1 2 C3.02463255 2.65213292 3.02463255 2.65213292 5 3 C-3.15597601 6.25371383 -11.30654293 9.28498898 -19.8125 11.5 C-20.48732422 11.68401367 -21.16214844 11.86802734 -21.85742188 12.05761719 C-23.76953125 12.53125 -23.76953125 12.53125 -27 13 C-27.99 12.34 -28.98 11.68 -30 11 C-29 9 -29 9 -25.9375 7.78125 C-24.6279403 7.34523416 -23.31520615 6.91867554 -22 6.5 C-21.31953613 6.27787842 -20.63907227 6.05575684 -19.93798828 5.8269043 C-15.00426905 4.24504302 -10.07135482 3.06334859 -5 2 C-3.31503622 1.38103371 -1.63596029 0.73882078 0 0 Z " fill="#FEC904" transform="translate(178,202)"/>
<path d="M0 0 C1.27230469 0.01804688 2.54460937 0.03609375 3.85546875 0.0546875 C5.31919922 0.08949219 5.31919922 0.08949219 6.8125 0.125 C7.1425 0.785 7.4725 1.445 7.8125 2.125 C5.15207959 6.11563062 2.40133876 7.77404587 -2.1875 9.125 C-5.92680964 9.16430943 -9.5043763 8.74788121 -13.1875 8.125 C-12.5275 7.795 -11.8675 7.465 -11.1875 7.125 C-11.043125 6.320625 -10.89875 5.51625 -10.75 4.6875 C-9.50884174 -0.96666539 -4.78708419 -0.08783641 0 0 Z " fill="#FD8200" transform="translate(153.1875,196.875)"/>
<path d="M0 0 C3 2 3 2 3.43359375 3.92578125 C3.44589519 11.44196002 1.47767284 17.94305682 -1 25 C-2.65 25.33 -4.3 25.66 -6 26 C-6.2225827 21.19963318 -5.42220685 17.02372422 -4.125 12.4375 C-3.95097656 11.79103516 -3.77695313 11.14457031 -3.59765625 10.47851562 C-2.60994461 6.88251362 -1.46174886 3.43050071 0 0 Z " fill="#FEB608" transform="translate(107,183)"/>
<path d="M0 0 C-6.38707918 4.25805279 -13.32390771 4.28491303 -20.75 4.1953125 C-21.64871826 4.1924826 -22.54743652 4.18965271 -23.47338867 4.18673706 C-26.31573365 4.17563125 -29.15775186 4.15054505 -32 4.125 C-33.9387975 4.11495777 -35.87759999 4.10583411 -37.81640625 4.09765625 C-42.54439482 4.07572345 -47.2721422 4.04126084 -52 4 C-52 3.67 -52 3.34 -52 3 C-51.32235596 2.98018066 -50.64471191 2.96036133 -49.9465332 2.93994141 C-36.29452878 2.52327961 -22.751128 1.85146974 -9.16796875 0.40234375 C-6.0959893 0.08065983 -3.09294405 -0.0941058 0 0 Z M-13 4 C-12.34 4.33 -11.68 4.66 -11 5 C-11 5.66 -11 6.32 -11 7 C-17.07804785 10.03902392 -25.37693443 9.12444173 -32 9 C-32 8.01 -32 7.02 -32 6 C-30.71222656 5.93941406 -29.42445312 5.87882813 -28.09765625 5.81640625 C-26.41925841 5.73201753 -24.74087364 5.6473687 -23.0625 5.5625 C-21.78729492 5.50352539 -21.78729492 5.50352539 -20.48632812 5.44335938 C-19.67744141 5.40146484 -18.86855469 5.35957031 -18.03515625 5.31640625 C-16.91185913 5.26141968 -16.91185913 5.26141968 -15.76586914 5.20532227 C-13.97538674 5.18228937 -13.97538674 5.18228937 -13 4 Z " fill="#FC9501" transform="translate(115,215)"/>
<path d="M0 0 C0.33 0.66 0.66 1.32 1 2 C1.85271484 1.98259766 1.85271484 1.98259766 2.72265625 1.96484375 C7.60670484 1.90776806 12.18503965 2.18043228 17 3 C17 3.33 17 3.66 17 4 C15.99839844 4.01417969 14.99679688 4.02835938 13.96484375 4.04296875 C4.79260209 4.31819358 -0.32711222 5.32711222 -7 12 C-7.99 12.66 -8.98 13.32 -10 14 C-5.71 14.33 -1.42 14.66 3 15 C3 15.33 3 15.66 3 16 C-3.6 16 -10.2 16 -17 16 C-14.75420832 11.50841664 -13.1553416 10.60727316 -9 8 C-6.52373615 6.08652339 -4.21189676 4.21189676 -2 2 C-1.34 1.34 -0.68 0.68 0 0 Z " fill="#FB6D00" transform="translate(170,177)"/>
<path d="M0 0 C1.83111328 -0.00193359 1.83111328 -0.00193359 3.69921875 -0.00390625 C4.98183594 -0.00003906 6.26445312 0.00382812 7.5859375 0.0078125 C8.84535156 0.00394531 10.10476562 0.00007813 11.40234375 -0.00390625 C17.68141064 0.00268249 23.75590586 0.14813493 29.9609375 1.1328125 C29.9609375 1.4628125 29.9609375 1.7928125 29.9609375 2.1328125 C13.6259375 2.6278125 13.6259375 2.6278125 -3.0390625 3.1328125 C-3.3690625 4.7828125 -3.6990625 6.4328125 -4.0390625 8.1328125 C-1.89462759 11.02779962 0.85760878 12.94863479 4.44140625 13.546875 C5.78138672 13.65128906 5.78138672 13.65128906 7.1484375 13.7578125 C8.04949219 13.83257812 8.95054687 13.90734375 9.87890625 13.984375 C10.56597656 14.03335938 11.25304687 14.08234375 11.9609375 14.1328125 C11.9609375 14.4628125 11.9609375 14.7928125 11.9609375 15.1328125 C9.89961608 15.24146195 7.83662429 15.31869571 5.7734375 15.3828125 C4.05060547 15.45242187 4.05060547 15.45242187 2.29296875 15.5234375 C-1.74849607 15.04964327 -3.28052649 14.09124242 -6.0390625 11.1328125 C-6.96484375 8.5546875 -6.96484375 8.5546875 -7.3515625 5.8828125 C-7.49207031 4.99078125 -7.63257812 4.09875 -7.77734375 3.1796875 C-7.86371094 2.50421875 -7.95007813 1.82875 -8.0390625 1.1328125 C-5.29109658 -0.24117046 -3.07272873 0.00311771 0 0 Z " fill="#FC8100" transform="translate(131.0390625,35.8671875)"/>
<path d="M0 0 C-1.423125 0.8971875 -1.423125 0.8971875 -2.875 1.8125 C-6.13964197 3.81562526 -6.13964197 3.81562526 -8 7 C-7.07455334 9.72492628 -6.06791957 12.20744179 -4.875 14.8125 C3.9891142 35.2047706 3.9891142 35.2047706 2 42 C1.78907715 41.33581055 1.5781543 40.67162109 1.36083984 39.98730469 C-3.72760683 23.58723091 -3.72760683 23.58723091 -10.96875 8.07421875 C-12 6 -12 6 -12 3 C-10.75823305 2.29773859 -9.50614401 1.61370891 -8.25 0.9375 C-7.20585937 0.36322266 -7.20585937 0.36322266 -6.140625 -0.22265625 C-3.63859372 -1.1312406 -2.4667645 -0.88336837 0 0 Z " fill="#FEB900" transform="translate(254,206)"/>
<path d="M0 0 C0.66 0 1.32 0 2 0 C2.66233012 7.94796148 0.74688728 13.97062837 -3 21 C-4.66796875 22.8515625 -4.66796875 22.8515625 -6 24 C-7.32 23.01 -8.64 22.02 -10 21 C-9.278125 19.948125 -8.55625 18.89625 -7.8125 17.8125 C-4.30709997 12.2539371 -2.20711211 6.16112996 0 0 Z " fill="#FEE946" transform="translate(330,93)"/>
<path d="M0 0 C0.33 0.99 0.66 1.98 1 3 C0 4 -1 5 -2 6 C-2.70382812 6.76183594 -3.40765625 7.52367187 -4.1328125 8.30859375 C-7.41915228 11.39345494 -10.82203625 13.59546367 -14.6875 15.875 C-15.36361328 16.29007813 -16.03972656 16.70515625 -16.73632812 17.1328125 C-18.45182951 18.15699243 -20.22273988 19.08718238 -22 20 C-22.66 19.67 -23.32 19.34 -24 19 C-19.9791486 14.73474391 -15.58792915 11.28495873 -10.875 7.8125 C-10.15957031 7.27947266 -9.44414062 6.74644531 -8.70703125 6.19726562 C-5.83877625 4.06617897 -2.97411745 1.98274497 0 0 Z " fill="#FDEF4A" transform="translate(290,145)"/>
<path d="M0 0 C-20.81856135 8.21895107 -20.81856135 8.21895107 -29 6 C-28 4 -28 4 -25.74682617 3.19042969 C-22.56375828 2.36223746 -19.37912137 1.54468613 -16.1875 0.75 C-15.08083984 0.45609375 -13.97417969 0.1621875 -12.83398438 -0.140625 C-11.76857422 -0.40875 -10.70316406 -0.676875 -9.60546875 -0.953125 C-8.62731201 -1.20223633 -7.64915527 -1.45134766 -6.64135742 -1.70800781 C-3.68225231 -2.03512582 -2.46480392 -1.59189053 0 0 Z " fill="#FEAE04" transform="translate(158,209)"/>
<path d="M0 0 C-0.99 1.32 -1.98 2.64 -3 4 C-3 3.34 -3 2.68 -3 2 C-3.91136719 2.13277344 -4.82273438 2.26554688 -5.76171875 2.40234375 C-21.80106592 4.58880202 -37.86312588 5.76285179 -54 4 C-54 3.67 -54 3.34 -54 3 C-52.794646 2.94465088 -51.58929199 2.88930176 -50.34741211 2.83227539 C-45.85392359 2.62504583 -41.3606522 2.41339367 -36.86743164 2.20043945 C-34.92673245 2.10907248 -32.98597722 2.01888754 -31.04516602 1.92993164 C-28.24740092 1.80148846 -25.44986827 1.66872494 -22.65234375 1.53515625 C-21.7916478 1.49656998 -20.93095184 1.4579837 -20.04417419 1.41822815 C-13.32320171 1.09078336 -6.72902093 -0.16412246 0 0 Z " fill="#EB5900" transform="translate(94,241)"/>
<path d="M0 0 C0.33 0 0.66 0 1 0 C2.98718981 8.7649265 4.50803456 16.94945834 4 26 C5.94765097 25.69060705 5.94765097 25.69060705 8 25 C9.77148372 22.52066803 9.77148372 22.52066803 11 20 C11.33 20.66 11.66 21.32 12 22 C11.14453125 24.12890625 11.14453125 24.12890625 9.8125 26.5625 C9.38582031 27.36816406 8.95914062 28.17382812 8.51953125 29.00390625 C6.72485996 31.36143075 5.81242032 31.44602204 3 32 C2.49306328 27.98000981 1.9956961 23.95889046 1.5 19.9375 C1.35691406 18.80376953 1.21382812 17.67003906 1.06640625 16.50195312 C0.38808682 10.96234446 -0.19443782 5.58198572 0 0 Z " fill="#EB5704" transform="translate(249,251)"/>
<path d="M0 0 C0.66 0.33 1.32 0.66 2 1 C1.3709375 1.67804688 0.741875 2.35609375 0.09375 3.0546875 C-8.26042434 12.13859393 -15.92665826 21.18761129 -22 32 C-22.66 31.01 -23.32 30.02 -24 29 C-16.8454149 18.44223836 -9.0216783 9.0216783 0 0 Z " fill="#FE6201" transform="translate(140,151)"/>
<path d="M0 0 C0.33 0.99 0.66 1.98 1 3 C-2.33333333 6.33333333 -5.66666667 9.66666667 -9 13 C-10.2065625 14.22203125 -10.2065625 14.22203125 -11.4375 15.46875 C-14.33034651 18.32631789 -17.30568846 21.07604576 -20.3125 23.8125 C-20.86228516 24.31458984 -21.41207031 24.81667969 -21.97851562 25.33398438 C-23.31805239 26.55703968 -24.65888992 27.77867008 -26 29 C-26.33 28.34 -26.66 27.68 -27 27 C-23.56404046 22.27555563 -19.40470546 18.77223493 -15 15 C-9.59147532 10.28297619 -4.38510268 5.70063349 0 0 Z " fill="#FEB100" transform="translate(205,73)"/>
<path d="M0 0 C0.33 1.32 0.66 2.64 1 4 C-13.87374037 13.3414345 -13.87374037 13.3414345 -20 16 C-20.66 15.67 -21.32 15.34 -22 15 C-20.5459375 14.1028125 -20.5459375 14.1028125 -19.0625 13.1875 C-15.76947958 11.28872491 -15.76947958 11.28872491 -15 8 C-12.3828125 6.46484375 -12.3828125 6.46484375 -9.125 4.9375 C-5.90824121 3.41438409 -2.96456363 1.97637575 0 0 Z " fill="#FED606" transform="translate(266,162)"/>
<path d="M0 0 C2.42259739 2.42259739 2.89663583 4.32136776 4 7.5625 C7.26281484 16.32520932 12.11974042 24.06040881 17 32 C18.00191285 33.66551746 19.0028767 35.33161069 20 37 C15.2686463 35.5030128 13.47994994 31.57762903 11.0625 27.5625 C10.62301025 26.84255859 10.18352051 26.12261719 9.73071289 25.38085938 C4.83208332 17.23494615 0.54574383 9.64147433 0 0 Z " fill="#FE6200" transform="translate(109,48)"/>
<path d="M0 0 C1.3506387 2.7012774 0.6228053 4.07533997 0 7 C-0.46599344 13.15649031 -0.89201343 18.89173237 3 24 C7.26591191 27.37129463 11.74873022 29.55590081 17 31 C17 31.33 17 31.66 17 32 C9.86373099 31.50784352 5.63402607 29.99986302 0.75 24.4375 C-3.70412942 18.23353402 -3.63748725 13.53897963 -3 6 C-2.25339036 3.58322891 -1.43894811 2.09846599 0 0 Z " fill="#FCA301" transform="translate(45,186)"/>
<path d="M0 0 C0 3 0 3 -1.57421875 4.71875 C-2.27160156 5.3065625 -2.96898437 5.894375 -3.6875 6.5 C-4.37199219 7.0878125 -5.05648437 7.675625 -5.76171875 8.28125 C-8 10 -8 10 -10.40625 11.39453125 C-13.55840239 13.34563762 -16.09650317 15.66784029 -18.8125 18.1875 C-19.31458984 18.65091797 -19.81667969 19.11433594 -20.33398438 19.59179688 C-21.55956829 20.72400297 -22.78029342 21.86146479 -24 23 C-24.66 22.67 -25.32 22.34 -26 22 C-24.6501685 17.95050551 -21.90624196 16.30499013 -18.625 13.8125 C-18.00028809 13.32998779 -17.37557617 12.84747559 -16.73193359 12.3503418 C-11.23413676 8.12454858 -5.64801633 4.02277081 0 0 Z " fill="#FE8A02" transform="translate(166,131)"/>
<path d="M0 0 C0.66 0.33 1.32 0.66 2 1 C1.01 2.32 0.02 3.64 -1 5 C-0.34 5.33 0.32 5.66 1 6 C-0.48781815 9.78717347 -2.61988409 11.77407001 -6 14 C-6.99 13.67 -7.98 13.34 -9 13 C-9.33 11.35 -9.66 9.7 -10 8 C-6.7 5.36 -3.4 2.72 0 0 Z " fill="#FC6800" transform="translate(212,133)"/>
<path d="M0 0 C1.0219601 3.18184739 0.94954615 5.32243328 0.1875 8.5625 C0.01605469 9.32691406 -0.15539062 10.09132813 -0.33203125 10.87890625 C-1 13 -1 13 -3 16 C-3 16.66 -3 17.32 -3 18 C-4.15838621 19.12431603 -5.31867233 20.24673843 -6.48828125 21.359375 C-9.44150514 24.56442419 -11.6724936 28.32877857 -14 32 C-14.33 31.34 -14.66 30.68 -15 30 C-13.87995142 27.82364545 -12.71022681 25.77230773 -11.4375 23.6875 C-6.96245794 16.13111975 -2.7858998 8.35769941 0 0 Z " fill="#FEBB01" transform="translate(234,25)"/>
<path d="M0 0 C-3.2334275 2.80178062 -6.10448769 3.74124175 -10.25 4.6875 C-11.32765625 4.93886719 -12.4053125 5.19023437 -13.515625 5.44921875 C-14.74539062 5.72185547 -14.74539062 5.72185547 -16 6 C-16 6.66 -16 7.32 -16 8 C-18.64 8 -21.28 8 -24 8 C-21.53023816 5.0796735 -19.08542511 4.09905642 -15.5 2.875 C-14.5409375 2.54242188 -13.581875 2.20984375 -12.59375 1.8671875 C-8.12945726 0.3746077 -4.73397358 -0.08932026 0 0 Z " fill="#ED4800" transform="translate(171,229)"/>
<path d="M0 0 C0.66 0.33 1.32 0.66 2 1 C1.67 1.53625 1.34 2.0725 1 2.625 C-0.22699204 5.5391061 -0.14233286 7.86867708 0 11 C8.3191895 11.92000449 16.64821927 12.47662174 25 13 C25 13.33 25 13.66 25 14 C21.27109745 14.1164862 17.54266486 14.18734576 13.8125 14.25 C12.22985352 14.30027344 12.22985352 14.30027344 10.61523438 14.3515625 C2.76704762 14.45059325 2.76704762 14.45059325 -1.171875 12.13671875 C-3.34051119 9.60200936 -4.08173387 8.35108863 -4 5 C-2.0625 2.1875 -2.0625 2.1875 0 0 Z " fill="#FC7600" transform="translate(146,58)"/>
<path d="M0 0 C-2.51231378 2.51231378 -4.37851766 2.78661713 -7.8125 3.625 C-8.85019531 3.88539063 -9.88789063 4.14578125 -10.95703125 4.4140625 C-13.80121168 4.9617224 -16.12529277 5.34164602 -19 5 C-20.8125 3.5 -20.8125 3.5 -22 2 C-14.26758147 -0.11536025 -7.93590615 -1.47957572 0 0 Z " fill="#FDF473" transform="translate(138,218)"/>
<path d="M0 0 C-2 2 -2 2 -4.0625 2.75 C-6.33005361 3.91344041 -6.33005361 3.91344041 -6.875 7 C-6.91625 7.99 -6.9575 8.98 -7 10 C-4.18515955 12.81484045 -1.7833753 12.62757042 2.125 13.125 C3.40632812 13.29257812 4.68765625 13.46015625 6.0078125 13.6328125 C7.48894531 13.81457031 7.48894531 13.81457031 9 14 C4.52023406 16.60475078 0.91928269 16.29991408 -4 15 C-6.83223743 13.60983865 -7.87052817 12.51168472 -10 10 C-10.625 6.375 -10.625 6.375 -10 3 C-7.11233855 -0.44298096 -4.29944762 -0.29314416 0 0 Z " fill="#F05301" transform="translate(190,248)"/>
<path d="M0 0 C1.28132813 0.10183594 2.56265625 0.20367187 3.8828125 0.30859375 C4.87023437 0.39238281 5.85765625 0.47617188 6.875 0.5625 C4.54622429 3.44464816 3.34161382 4.47458725 -0.359375 5.171875 C-2.09960938 5.24148437 -2.09960938 5.24148437 -3.875 5.3125 C-5.04546875 5.36921875 -6.2159375 5.4259375 -7.421875 5.484375 C-8.75992188 5.52304688 -8.75992188 5.52304688 -10.125 5.5625 C-9.75 3.125 -9.75 3.125 -9.125 0.5625 C-6.07230154 -0.96384923 -3.36654311 -0.27544444 0 0 Z " fill="#FEE643" transform="translate(100.125,223.4375)"/>
<path d="M0 0 C0.66 0.33 1.32 0.66 2 1 C2.33333333 3 2.66666667 5 3 7 C3.66 7.33 4.32 7.66 5 8 C4.01 9.485 4.01 9.485 3 11 C-0.625 11.1875 -0.625 11.1875 -4 11 C-3.48964169 6.6109185 -2.47785723 3.66291938 0 0 Z " fill="#E54E01" transform="translate(129,196)"/>
<path d="M0 0 C0.66 0.99 1.32 1.98 2 3 C0.9790625 4.299375 0.9790625 4.299375 -0.0625 5.625 C-2.39390524 9.68615751 -1.78296452 10.56320104 -1 15 C-1.76221093 18.09457639 -2.83428545 21.03631893 -4 24 C-5.231394 21.53721199 -5.07159196 19.7204945 -5 17 C-5.33 17 -5.66 17 -6 17 C-5.57664615 10.50857435 -3.08900201 5.66507011 0 0 Z " fill="#FED71F" transform="translate(114,169)"/>
<path d="M0 0 C7.59 0 15.18 0 23 0 C23 0.33 23 0.66 23 1 C22.24074219 1.12117187 21.48148438 1.24234375 20.69921875 1.3671875 C19.20841797 1.61855469 19.20841797 1.61855469 17.6875 1.875 C16.70136719 2.03742188 15.71523437 2.19984375 14.69921875 2.3671875 C11.79940173 2.88085454 11.79940173 2.88085454 9 5 C5.8125 5.125 5.8125 5.125 3 5 C2.67 4.01 2.34 3.02 2 2 C1.34 1.34 0.68 0.68 0 0 Z " fill="#FEC819" transform="translate(64,224)"/>
<path d="M0 0 C0.66 0.66 1.32 1.32 2 2 C-7.25153374 5.66871166 -7.25153374 5.66871166 -12 6 C-12.99 5.34 -13.98 4.68 -15 4 C-14 2 -14 2 -11.4375 0.875 C-7.34680381 -0.16626812 -4.21195072 -0.28079671 0 0 Z " fill="#FDDA1A" transform="translate(163,209)"/>
<path d="M0 0 C0 0.99 0 1.98 0 3 C-2.14176895 5.03185848 -4.27648356 6.89423155 -6.5625 8.75 C-7.84949399 9.82071155 -9.13466839 10.89361422 -10.41796875 11.96875 C-11.03720215 12.48695313 -11.65643555 13.00515625 -12.29443359 13.5390625 C-15.38469018 16.18608446 -18.19270517 19.05902446 -21 22 C-21.33 21.01 -21.66 20.02 -22 19 C-21.46890625 18.55269531 -20.9378125 18.10539062 -20.390625 17.64453125 C-17.29645716 14.99642046 -14.40761491 12.51551298 -11.875 9.3125 C-9.58998693 6.49431722 -7.06513833 4.91571146 -4 3 C-2.65824027 2.01133494 -1.32103998 1.0161846 0 0 Z " fill="#FD8C00" transform="translate(157,170)"/>
<path d="M0 0 C0.66 0 1.32 0 2 0 C2.69906942 1.59915881 3.38389468 3.20455045 4.0625 4.8125 C4.63677734 6.15248047 4.63677734 6.15248047 5.22265625 7.51953125 C6 10 6 10 5 13 C4.34 12.01 3.68 11.02 3 10 C2.01 11.98 1.02 13.96 0 16 C-0.33 16 -0.66 16 -1 16 C-0.67 10.72 -0.34 5.44 0 0 Z " fill="#FEBE00" transform="translate(239,5)"/>
<path d="M0 0 C2.31 0 4.62 0 7 0 C5.11408904 6.03491509 1.24398161 11.50401226 -4 15 C-3.1875 12.0625 -3.1875 12.0625 -2 9 C-1.01 8.67 -0.02 8.34 1 8 C0.67 5.36 0.34 2.72 0 0 Z " fill="#FDB800" transform="translate(203,57)"/>
<path d="M0 0 C-4.3582489 2.18332315 -7.74660538 2.11346374 -12.5625 1.75 C-13.86316406 1.66234375 -15.16382813 1.5746875 -16.50390625 1.484375 C-19.54887722 1.06250193 -21.42635263 0.59788793 -24 -1 C-5.23678976 -2.96399958 -5.23678976 -2.96399958 0 0 Z " fill="#FB9304" transform="translate(63,233)"/>
<path d="M0 0 C-2.39763185 2.39763185 -3.33273498 2.34280586 -6.625 2.625 C-7.44226563 2.69976562 -8.25953125 2.77453125 -9.1015625 2.8515625 C-9.72804688 2.90054688 -10.35453125 2.94953125 -11 3 C-11.33 3.99 -11.66 4.98 -12 6 C-14.31 6 -16.62 6 -19 6 C-18.67 4.68 -18.34 3.36 -18 2 C-16.12612523 1.6603981 -14.25083303 1.32861309 -12.375 1 C-11.33085938 0.814375 -10.28671875 0.62875 -9.2109375 0.4375 C-6.09425135 0.01284203 -3.14069188 -0.07545206 0 0 Z " fill="#C22C01" transform="translate(112,239)"/>
<path d="M0 0 C-1.70180235 2.06007653 -2.59835095 2.9253389 -5.26953125 3.421875 C-12.07862893 4.86357236 -18.8702864 9.40094643 -24 14 C-24.66 13.67 -25.32 13.34 -26 13 C-5.25428784 -2.62714392 -5.25428784 -2.62714392 0 0 Z " fill="#FA9402" transform="translate(78,143)"/>
<path d="M0 0 C0.99 0 1.98 0 3 0 C0.40796916 9.25134412 -6.23608096 17.42590428 -14 23 C-12.46844274 19.5718511 -10.43584825 16.89928575 -8.0625 14 C-2.57037243 7.70902225 -2.57037243 7.70902225 0 0 Z " fill="#FECF00" transform="translate(235,101)"/>
<path d="M0 0 C0 0.99 0 1.98 0 3 C-2.23478745 4.90119302 -4.41640004 6.57863175 -6.8125 8.25 C-7.45509766 8.72179687 -8.09769531 9.19359375 -8.75976562 9.6796875 C-10.44681476 10.87548191 -12.22009291 11.94738906 -14 13 C-14.99 12.67 -15.98 12.34 -17 12 C-15.54634731 10.82750647 -14.08692581 9.66216184 -12.625 8.5 C-11.40683594 7.52546875 -11.40683594 7.52546875 -10.1640625 6.53125 C-8 5 -8 5 -6 5 C-6 4.34 -6 3.68 -6 3 C-4.02 2.01 -2.04 1.02 0 0 Z " fill="#FB6500" transform="translate(154,106)"/>
<path d="M0 0 C2 2 2 2 2.8125 4.9375 C3.75698377 8.05180313 3.75698377 8.05180313 6 9.8125 C10.25401786 11.49638207 14.45932253 11.74431137 19 12 C19 12.33 19 12.66 19 13 C16.93867858 13.10864945 14.87568679 13.18588321 12.8125 13.25 C11.08966797 13.31960937 11.08966797 13.31960937 9.33203125 13.390625 C5.36020138 12.9249943 3.81228515 11.77629613 1 9 C-0.4783226 6.04335481 -0.06032783 3.25770263 0 0 Z " fill="#FB6D00" transform="translate(124,38)"/>
<path d="M0 0 C1.48838509 4.46515528 -0.12165998 7.80403076 -2 12 C-4.1875 14.5625 -4.1875 14.5625 -6 16 C-6.77843805 9.9281832 -4.17016902 5.93714848 -1 1 C-0.67 0.67 -0.34 0.34 0 0 Z " fill="#F98104" transform="translate(110,0)"/>
<path d="M0 0 C0 0.66 0 1.32 0 2 C4.62 2 9.24 2 14 2 C14 2.33 14 2.66 14 3 C3.11 3.495 3.11 3.495 -8 4 C-8.33 3.34 -8.66 2.68 -9 2 C-3.375 0 -3.375 0 0 0 Z " fill="#DE4400" transform="translate(146,237)"/>
<path d="M0 0 C0.33 0 0.66 0 1 0 C1 1.98 1 3.96 1 6 C-5.38232875 8.00925164 -10.40609458 7.99989549 -17 7 C-16.67 6.34 -16.34 5.68 -16 5 C-13.45058627 4.68758629 -10.99638487 4.48696579 -8.4375 4.375 C-7.72658203 4.33632812 -7.01566406 4.29765625 -6.28320312 4.2578125 C-4.52257575 4.16328217 -2.76132272 4.08054183 -1 4 C-0.67 2.68 -0.34 1.36 0 0 Z " fill="#F34300" transform="translate(106,204)"/>
<path d="M0 0 C0.66 0.66 1.32 1.32 2 2 C0.75314243 3.58580914 -0.49763026 5.1685404 -1.75 6.75 C-2.44609375 7.63171875 -3.1421875 8.5134375 -3.859375 9.421875 C-5.79945897 11.75847248 -7.81512186 13.8938562 -10 16 C-10.66 15.67 -11.32 15.34 -12 15 C-11.30132812 14.16855469 -10.60265625 13.33710937 -9.8828125 12.48046875 C-8.96346318 11.38287824 -8.04419668 10.28521835 -7.125 9.1875 C-6.66480469 8.64029297 -6.20460937 8.09308594 -5.73046875 7.52929688 C-3.68242038 5.08054339 -1.77281117 2.65921675 0 0 Z " fill="#FEBA00" transform="translate(218,57)"/>
<path d="M0 0 C0.33 0.66 0.66 1.32 1 2 C0.14453125 4.12890625 0.14453125 4.12890625 -1.1875 6.5625 C-1.61417969 7.36816406 -2.04085938 8.17382812 -2.48046875 9.00390625 C-4 11 -4 11 -6.17578125 11.77734375 C-7.07876953 11.88755859 -7.07876953 11.88755859 -8 12 C-8 10.02 -8 8.04 -8 6 C-6.8553125 5.9071875 -6.8553125 5.9071875 -5.6875 5.8125 C-2.76948191 5.23064738 -2.76948191 5.23064738 -1.1875 2.4375 C-0.795625 1.633125 -0.40375 0.82875 0 0 Z " fill="#E7600B" transform="translate(260,271)"/>
<path d="M0 0 C3.63 0 7.26 0 11 0 C11 0.66 11 1.32 11 2 C12.32 2.66 13.64 3.32 15 4 C12.4791665 5.26041675 11.64903564 4.66225891 9 4 C8.01 4.495 8.01 4.495 7 5 C4.5249829 3.88568235 2.32116581 2.41849022 0 1 C0 0.67 0 0.34 0 0 Z " fill="#FECC06" transform="translate(316,69)"/>
<path d="M0 0 C0 0.33 0 0.66 0 1 C-1.1446875 1.185625 -1.1446875 1.185625 -2.3125 1.375 C-5.20267136 1.88102792 -5.20267136 1.88102792 -8 4 C-6.68 5.32 -5.36 6.64 -4 8 C-6.97 8 -9.94 8 -13 8 C-12.34 7.67 -11.68 7.34 -11 7 C-10.855625 6.195625 -10.71125 5.39125 -10.5625 4.5625 C-9.3282368 -1.06025457 -4.76497656 -0.17981044 0 0 Z " fill="#F46000" transform="translate(153,197)"/>
<path d="M0 0 C0.33 0 0.66 0 1 0 C1.05422947 1.4370809 1.09289723 2.87475462 1.125 4.3125 C1.14820313 5.11300781 1.17140625 5.91351563 1.1953125 6.73828125 C1 9 1 9 -1 12 C-1.63292383 14.11280345 -1.63292383 14.11280345 -2 16 C-2.66 15.67 -3.32 15.34 -4 15 C-3.50341703 9.33895411 -2.45489316 5.12325529 0 0 Z " fill="#FEE944" transform="translate(240,29)"/>
<path d="M0 0 C0.33 0 0.66 0 1 0 C1.33 6.93 1.66 13.86 2 21 C-1.83736322 20.04065919 -2.59660228 19.76390737 -5 17 C-4.67 16.34 -4.34 15.68 -4 15 C-2.68 15.99 -1.36 16.98 0 18 C0 12.06 0 6.12 0 0 Z " fill="#D95710" transform="translate(115,262)"/>
<path d="M0 0 C0.99 0.66 1.98 1.32 3 2 C2.75 5.375 2.75 5.375 2 9 C0.02 9.99 0.02 9.99 -2 11 C-1.34 7.37 -0.68 3.74 0 0 Z M-3 11 C-2.67 12.32 -2.34 13.64 -2 15 C-2.99 15.66 -3.98 16.32 -5 17 C-4.34 15.02 -3.68 13.04 -3 11 Z " fill="#FDBC02" transform="translate(336,91)"/>
<path d="M0 0 C0.78375 0.04125 1.5675 0.0825 2.375 0.125 C1.385 1.61 1.385 1.61 0.375 3.125 C-0.01513716 5.1146995 -0.35702649 7.11519869 -0.625 9.125 C-1.615 8.795 -2.605 8.465 -3.625 8.125 C-4.25 5.25 -4.25 5.25 -4.625 2.125 C-2.625 0.125 -2.625 0.125 0 0 Z " fill="#FA7100" transform="translate(163.625,79.875)"/>
<path d="M0 0 C0.33 0 0.66 0 1 0 C1.103125 0.9075 1.20625 1.815 1.3125 2.75 C1.74132555 6.00602595 1.74132555 6.00602595 3.6875 8.0625 C4.120625 8.701875 4.55375 9.34125 5 10 C4.3125 12.6875 4.3125 12.6875 3 15 C2.01 15.495 2.01 15.495 1 16 C-0.50156874 12.99686252 -0.09281204 10.20932478 -0.0625 6.875 C-0.05347656 5.59367187 -0.04445313 4.31234375 -0.03515625 2.9921875 C-0.02355469 2.00476563 -0.01195312 1.01734375 0 0 Z " fill="#FC7E01" transform="translate(257,257)"/>
<path d="M0 0 C0.33 0.66 0.66 1.32 1 2 C-0.3125 4.625 -0.3125 4.625 -2 7 C-2.66 7 -3.32 7 -4 7 C-4 8.98 -4 10.96 -4 13 C-4.99 13 -5.98 13 -7 13 C-6.70876501 7.02968261 -3.97185616 4.105466 0 0 Z " fill="#FEE32F" transform="translate(32,184)"/>
<path d="M0 0 C0.66 0 1.32 0 2 0 C2.21755666 5.4389165 2.10428384 9.87080814 0 15 C-0.93423645 11.98968256 -1.04449911 11.13349732 0 8 C-0.66 8 -1.32 8 -2 8 C-1.34 5.36 -0.68 2.72 0 0 Z " fill="#FEDE2D" transform="translate(330,93)"/>
<path d="M0 0 C1.53508028 2.43338652 2.03088304 3.67124507 1.7578125 6.578125 C1.54898438 7.45984375 1.34015625 8.3415625 1.125 9.25 C0.92132813 10.14203125 0.71765625 11.0340625 0.5078125 11.953125 C0.34023437 12.62859375 0.17265625 13.3040625 0 14 C-0.66 13.34 -1.32 12.68 -2 12 C-2.99 12.495 -2.99 12.495 -4 13 C-4 11.68 -4 10.36 -4 9 C-3.34 8.67 -2.68 8.34 -2 8 C-1.62599214 5.67284 -1.29235267 3.33882138 -1 1 C-0.67 0.67 -0.34 0.34 0 0 Z " fill="#FEBC03" transform="translate(242,19)"/>
<path d="M0 0 C0.99 0.66 1.98 1.32 3 2 C3.1875 5.125 3.1875 5.125 3 8 C1.35 8.66 -0.3 9.32 -2 10 C-1.125 2.25 -1.125 2.25 0 0 Z " fill="#FEC30F" transform="translate(107,183)"/>
<path d="M0 0 C0.99386719 0.38027344 1.98773438 0.76054687 3.01171875 1.15234375 C3.77097656 1.45269531 4.53023437 1.75304687 5.3125 2.0625 C5.3125 2.3925 5.3125 2.7225 5.3125 3.0625 C4.36375 3.041875 3.415 3.02125 2.4375 3 C-0.59416283 2.83698174 -0.59416283 2.83698174 -2.6875 4.0625 C-2.6875 3.4025 -2.6875 2.7425 -2.6875 2.0625 C-5.73663228 1.05138907 -5.73663228 1.05138907 -8.6875 2.0625 C-8.6875 1.0725 -8.6875 0.0825 -8.6875 -0.9375 C-4.90884307 -2.19705231 -3.65338214 -1.41837189 0 0 Z " fill="#FC7F00" transform="translate(202.6875,174.9375)"/>
<path d="M0 0 C0.66 0.33 1.32 0.66 2 1 C-0.97 4.3 -3.94 7.6 -7 11 C-7.99 10.67 -8.98 10.34 -10 10 C-6.7 6.7 -3.4 3.4 0 0 Z " fill="#FE7403" transform="translate(140,151)"/>
<path d="M0 0 C0.66 0 1.32 0 2 0 C0.48446596 3.47775179 -1.5773456 5.9557984 -4.125 8.75 C-5.21167969 9.94882813 -5.21167969 9.94882813 -6.3203125 11.171875 C-6.87460938 11.77515625 -7.42890625 12.3784375 -8 13 C-8 9.03990775 -6.59219817 7.85479241 -4.125 4.8125 C-3.40570313 3.91144531 -2.68640625 3.01039062 -1.9453125 2.08203125 C-1.30335938 1.39496094 -0.66140625 0.70789063 0 0 Z " fill="#FDF569" transform="translate(221,69)"/>
<path d="M0 0 C0.99 1.32 1.98 2.64 3 4 C2.34 5.32 1.68 6.64 1 8 C-0.32 8 -1.64 8 -3 8 C-3 6.35 -3 4.7 -3 3 C-2.34 3 -1.68 3 -1 3 C-0.67 2.01 -0.34 1.02 0 0 Z " fill="#FB6800" transform="translate(256,269)"/>
<path d="M0 0 C1.23755012 4.95020047 0.23808072 6.52383855 -2 11 C-3.6875 13.4375 -3.6875 13.4375 -5 15 C-5.66 14.67 -6.32 14.34 -7 14 C-4.69 9.38 -2.38 4.76 0 0 Z " fill="#FFC206" transform="translate(235,57)"/>
<path d="M0 0 C0.99 0 1.98 0 3 0 C2.88590407 1.45922693 2.75834456 2.91740598 2.625 4.375 C2.55539062 5.18710938 2.48578125 5.99921875 2.4140625 6.8359375 C2 9 2 9 0 11 C0.33 9.35 0.66 7.7 1 6 C0.01 6.33 -0.98 6.66 -2 7 C-1.34 4.69 -0.68 2.38 0 0 Z " fill="#FEE23C" transform="translate(327,101)"/>
<path d="M0 0 C0.33 1.32 0.66 2.64 1 4 C-1.3125 5.5625 -1.3125 5.5625 -4 7 C-4.99 6.67 -5.98 6.34 -7 6 C-7 5.34 -7 4.68 -7 4 C-4.69 2.68 -2.38 1.36 0 0 Z " fill="#FEE016" transform="translate(266,162)"/>
<path d="M0 0 C0.66 0.66 1.32 1.32 2 2 C-1.3 5.3 -4.6 8.6 -8 12 C-8.33 11.01 -8.66 10.02 -9 9 C-8.43410156 8.51789063 -7.86820313 8.03578125 -7.28515625 7.5390625 C-6.55167969 6.90742188 -5.81820312 6.27578125 -5.0625 5.625 C-4.33160156 4.99851563 -3.60070312 4.37203125 -2.84765625 3.7265625 C-0.91619094 2.12252286 -0.91619094 2.12252286 0 0 Z " fill="#FC7B00" transform="translate(144,180)"/>
<path d="M0 0 C0.33 0.66 0.66 1.32 1 2 C0.00390625 3.9453125 0.00390625 3.9453125 -1.4375 6.125 C-1.91058594 6.84945312 -2.38367187 7.57390625 -2.87109375 8.3203125 C-3.24363281 8.87460938 -3.61617187 9.42890625 -4 10 C-4.66 9.01 -5.32 8.02 -6 7 C-4.19587357 3.73539027 -3.16605307 2.11070205 0 0 Z " fill="#FDC609" transform="translate(38,176)"/>
<path d="M0 0 C0 4.24170573 -1.83750763 6.75139708 -4.6875 9.8125 C-5.120625 10.204375 -5.55375 10.59625 -6 11 C-6.33 10.01 -6.66 9.02 -7 8 C-5.56640625 5.95703125 -5.56640625 5.95703125 -3.5625 3.8125 C-2.90378906 3.09707031 -2.24507813 2.38164062 -1.56640625 1.64453125 C-1.04949219 1.10183594 -0.53257813 0.55914062 0 0 Z " fill="#F96800" transform="translate(114,151)"/>
<path d="M0 0 C4.48599743 1.25190626 7.59347128 2.79385533 11 6 C11 6.66 11 7.32 11 8 C8.53199953 6.84826645 6.95216435 5.95216435 5 4 C3.35008418 3.29289322 1.68437744 2.62056011 0 2 C0 1.34 0 0.68 0 0 Z " fill="#FDB000" transform="translate(344,66)"/>
<path d="M0 0 C0.66 0.99 1.32 1.98 2 3 C1.34 3.928125 0.68 4.85625 0 5.8125 C-2.26574554 8.79636556 -2.26574554 8.79636556 -2 12 C-2.66 12 -3.32 12 -4 12 C-3.45660208 7.43545749 -2.20536179 4.0271824 0 0 Z " fill="#FDE42F" transform="translate(114,169)"/>
<path d="M0 0 C-1.38009621 3.33523252 -2.84950652 5.18607951 -6 7 C-6.99 6.67 -7.98 6.34 -9 6 C-7.8803014 4.99406757 -6.7540588 3.9954151 -5.625 3 C-4.68527344 2.1646875 -4.68527344 2.1646875 -3.7265625 1.3125 C-2 0 -2 0 0 0 Z " fill="#FBA202" transform="translate(49,159)"/>
<path d="M0 0 C-0.25561323 2.3431213 -0.59270772 4.67843403 -1 7 C-1.99 7.495 -1.99 7.495 -3 8 C-2.67 6.02 -2.34 4.04 -2 2 C-3.98 2 -5.96 2 -8 2 C-4.77208445 -0.1519437 -3.71599191 -0.20086443 0 0 Z " fill="#CE3100" transform="translate(121,237)"/>
<path d="M0 0 C-0.99 0.495 -0.99 0.495 -2 1 C-2 1.66 -2 2.32 -2 3 C-4.64 3 -7.28 3 -10 3 C-7.29536552 -0.8183075 -4.37912428 -0.24787496 0 0 Z " fill="#E33E01" transform="translate(157,234)"/>
<path d="M0 0 C0.99 0.66 1.98 1.32 3 2 C-1.39453125 6.00390625 -1.39453125 6.00390625 -3 7 C-3.99 6.67 -4.98 6.34 -6 6 C-4.73577236 3.47154472 -3.47154472 3.23577236 -1 2 C-0.67 1.34 -0.34 0.68 0 0 Z " fill="#F95E00" transform="translate(131,121)"/>
<path d="M0 0 C0.33 0.99 0.66 1.98 1 3 C-1.64 5.31 -4.28 7.62 -7 10 C-7 7 -7 7 -5.46875 5.17578125 C-4.8190625 4.56089844 -4.169375 3.94601563 -3.5 3.3125 C-2.8503125 2.68988281 -2.200625 2.06726563 -1.53125 1.42578125 C-0.77328125 0.72001953 -0.77328125 0.72001953 0 0 Z " fill="#FFBF08" transform="translate(209,96)"/>
<path d="M0 0 C0.33 0 0.66 0 1 0 C0.50769231 6.4 0.50769231 6.4 -2.0625 9.4375 C-2.701875 9.953125 -3.34125 10.46875 -4 11 C-4 9.35 -4 7.7 -4 6 C-3.34 5.67 -2.68 5.34 -2 5 C-1.27840576 3.35636866 -0.60648579 1.68949614 0 0 Z " fill="#FCA401" transform="translate(173,42)"/>
<path d="M0 0 C1.15957207 3.47871621 0.77456651 4.34219645 -0.4375 7.6875 C-0.72496094 8.49574219 -1.01242188 9.30398438 -1.30859375 10.13671875 C-1.65083984 11.05904297 -1.65083984 11.05904297 -2 12 C-2.33 12 -2.66 12 -3 12 C-2.88601335 10.37419034 -2.75844341 8.74932843 -2.625 7.125 C-2.55539063 6.22007812 -2.48578125 5.31515625 -2.4140625 4.3828125 C-2 2 -2 2 0 0 Z " fill="#F68C0A" transform="translate(110,0)"/>
<path d="M0 0 C1.98 0 3.96 0 6 0 C6 0.99 6 1.98 6 3 C4.1875 3.625 4.1875 3.625 2 4 C1.01 3.34 0.02 2.68 -1 2 C-0.67 1.34 -0.34 0.68 0 0 Z " fill="#FDE344" transform="translate(149,211)"/>
<path d="M0 0 C0.99 0.33 1.98 0.66 3 1 C0.69 3.31 -1.62 5.62 -4 8 C-4.66 7.67 -5.32 7.34 -6 7 C-4.02 4.69 -2.04 2.38 0 0 Z " fill="#FEAF03" transform="translate(319,123)"/>
<path d="M0 0 C0.33 0.66 0.66 1.32 1 2 C-2.63 2 -6.26 2 -10 2 C-10.33 1.34 -10.66 0.68 -11 0 C-3.375 -1.125 -3.375 -1.125 0 0 Z " fill="#FEC100" transform="translate(334,64)"/>
<path d="M0 0 C1.32 0.33 2.64 0.66 4 1 C4 1.66 4 2.32 4 3 C2.02 3.66 0.04 4.32 -2 5 C-2.33 4.01 -2.66 3.02 -3 2 C-2.01 2 -1.02 2 0 2 C0 1.34 0 0.68 0 0 Z " fill="#FDEC57" transform="translate(147,212)"/>
<path d="M0 0 C2.31 0 4.62 0 7 0 C6.67 0.99 6.34 1.98 6 3 C3.9375 3.6875 3.9375 3.6875 2 4 C2 3.01 2 2.02 2 1 C1.34 0.67 0.68 0.34 0 0 Z " fill="#FEE02B" transform="translate(153,210)"/>
<path d="M0 0 C0.66 0.66 1.32 1.32 2 2 C0.38405168 4.04119788 -1.2856382 6.04072937 -3 8 C-3.66 8 -4.32 8 -5 8 C-3.25 4.125 -3.25 4.125 -1 3 C-0.67 2.01 -0.34 1.02 0 0 Z " fill="#FC8800" transform="translate(131,133)"/>
<path d="M0 0 C2.64 0 5.28 0 8 0 C7.34 0.66 6.68 1.32 6 2 C2.875 1.625 2.875 1.625 0 1 C0 0.67 0 0.34 0 0 Z " fill="#FD8801" transform="translate(155,195)"/>
<path d="M0 0 C4 1 4 1 4 1 Z " fill="#FD8400" transform="translate(175,177)"/>
<path d="M0 0 C3 1 3 1 3 1 Z " fill="#F66E00" transform="translate(154,230)"/>
<path d="M0 0 C0.66 0 1.32 0 2 0 C1.67 0.66 1.34 1.32 1 2 C0.67 1.34 0.34 0.68 0 0 Z " fill="#FC7B00" transform="translate(169,224)"/>
<path d="M0 0 C3 1 3 1 3 1 Z " fill="#FE8000" transform="translate(204,223)"/>
<path d="M0 0 C3 1 3 1 3 1 Z " fill="#FE9F02" transform="translate(195,189)"/>
<path d="M0 0 C3 1 3 1 3 1 Z " fill="#FF9801" transform="translate(203,179)"/>
<path d="M0 0 C0.33 0.66 0.66 1.32 1 2 C0.34 1.67 -0.32 1.34 -1 1 C-0.67 0.67 -0.34 0.34 0 0 Z " fill="#FF8E00" transform="translate(187,176)"/>
<path d="M0 0 C3 1 3 1 3 1 Z " fill="#FEB000" transform="translate(182,77)"/>
<path d="M0 0 C3 1 3 1 3 1 Z " fill="#FE8B00" transform="translate(148,73)"/>
<path d="M0 0 C3 1 3 1 3 1 Z " fill="#FFC003" transform="translate(204,55)"/>
<path d="" fill="#FB7703" transform="translate(0,0)"/>
<path d="M0 0 C2 1 2 1 2 1 Z " fill="#EE5F03" transform="translate(138,237)"/>
<path d="M0 0 C2 1 2 1 2 1 Z " fill="#F76D00" transform="translate(149,231)"/>
<path d="M0 0 C2 1 2 1 2 1 Z " fill="#FB7A00" transform="translate(167,225)"/>
<path d="" fill="#FC8002" transform="translate(0,0)"/>
<path d="" fill="#FF9701" transform="translate(0,0)"/>
<path d="M0 0 C2 1 2 1 2 1 Z " fill="#FE9001" transform="translate(246,193)"/>
<path d="" fill="#FEB207" transform="translate(0,0)"/>
<path d="" fill="#FE8500" transform="translate(0,0)"/>
<path d="M0 0 C2 1 2 1 2 1 Z " fill="#FE8E00" transform="translate(206,152)"/>
<path d="M0 0 C2 1 2 1 2 1 Z " fill="#FE8D00" transform="translate(145,116)"/>
<path d="M0 0 C2 1 2 1 2 1 Z " fill="#FFBC00" transform="translate(317,80)"/>
<path d="M0 0 C2 1 2 1 2 1 Z " fill="#FEA801" transform="translate(175,77)"/>
<path d="M0 0 C2 1 2 1 2 1 Z " fill="#FE9C00" transform="translate(168,77)"/>
<path d="" fill="#F98206" transform="translate(0,0)"/>
<path d="" fill="#FD8B01" transform="translate(0,0)"/>
<path d="M0 0 C2 1 2 1 2 1 Z " fill="#FFC506" transform="translate(221,47)"/>
<path d="" fill="#D9752A" transform="translate(0,0)"/>
<path d="" fill="#DB6311" transform="translate(0,0)"/>
<path d="" fill="#E77D1D" transform="translate(0,0)"/>
<path d="" fill="#ED760D" transform="translate(0,0)"/>
<path d="" fill="#E66F18" transform="translate(0,0)"/>
<path d="" fill="#F77C08" transform="translate(0,0)"/>
<path d="" fill="#F17406" transform="translate(0,0)"/>
<path d="" fill="#F2770A" transform="translate(0,0)"/>
<path d="" fill="#FA7704" transform="translate(0,0)"/>
<path d="" fill="#FB7200" transform="translate(0,0)"/>
<path d="" fill="#FB7D00" transform="translate(0,0)"/>
<path d="" fill="#F17303" transform="translate(0,0)"/>
<path d="" fill="#FB7601" transform="translate(0,0)"/>
<path d="" fill="#FD7E00" transform="translate(0,0)"/>
<path d="" fill="#F36A06" transform="translate(0,0)"/>
<path d="" fill="#EF6504" transform="translate(0,0)"/>
<path d="" fill="#EE6202" transform="translate(0,0)"/>
<path d="" fill="#F56D00" transform="translate(0,0)"/>
<path d="" fill="#F87300" transform="translate(0,0)"/>
<path d="" fill="#F77000" transform="translate(0,0)"/>
<path d="" fill="#FCB80C" transform="translate(0,0)"/>
<path d="" fill="#FCAC0A" transform="translate(0,0)"/>
<path d="" fill="#FC7F00" transform="translate(0,0)"/>
<path d="" fill="#FC8100" transform="translate(0,0)"/>
<path d="" fill="#F97D00" transform="translate(0,0)"/>
<path d="" fill="#FB7B00" transform="translate(0,0)"/>
<path d="" fill="#FBB10C" transform="translate(0,0)"/>
<path d="" fill="#FF8200" transform="translate(0,0)"/>
<path d="" fill="#FD8100" transform="translate(0,0)"/>
<path d="" fill="#FA7700" transform="translate(0,0)"/>
<path d="" fill="#FD7900" transform="translate(0,0)"/>
<path d="" fill="#FD7800" transform="translate(0,0)"/>
<path d="" fill="#FB7900" transform="translate(0,0)"/>
<path d="" fill="#FF7B00" transform="translate(0,0)"/>
<path d="" fill="#FEB40B" transform="translate(0,0)"/>
<path d="" fill="#FDB007" transform="translate(0,0)"/>
<path d="" fill="#FD7C00" transform="translate(0,0)"/>
<path d="" fill="#F98F03" transform="translate(0,0)"/>
<path d="" fill="#FA8E02" transform="translate(0,0)"/>
<path d="" fill="#FB8200" transform="translate(0,0)"/>
<path d="" fill="#F78301" transform="translate(0,0)"/>
<path d="" fill="#FB8401" transform="translate(0,0)"/>
<path d="" fill="#FC9A00" transform="translate(0,0)"/>
<path d="" fill="#F98502" transform="translate(0,0)"/>
<path d="" fill="#F98200" transform="translate(0,0)"/>
<path d="" fill="#FD8600" transform="translate(0,0)"/>
<path d="" fill="#FF9A02" transform="translate(0,0)"/>
<path d="" fill="#FD9807" transform="translate(0,0)"/>
<path d="" fill="#FF8A00" transform="translate(0,0)"/>
<path d="" fill="#FFA002" transform="translate(0,0)"/>
<path d="" fill="#F67D00" transform="translate(0,0)"/>
<path d="" fill="#FE8C01" transform="translate(0,0)"/>
<path d="" fill="#FE9A04" transform="translate(0,0)"/>
<path d="" fill="#FB9002" transform="translate(0,0)"/>
<path d="" fill="#FC8000" transform="translate(0,0)"/>
<path d="" fill="#FF9400" transform="translate(0,0)"/>
<path d="" fill="#FF9800" transform="translate(0,0)"/>
<path d="" fill="#FB8103" transform="translate(0,0)"/>
<path d="" fill="#FA7A00" transform="translate(0,0)"/>
<path d="" fill="#FA7E02" transform="translate(0,0)"/>
<path d="" fill="#FB7E00" transform="translate(0,0)"/>
<path d="" fill="#F98801" transform="translate(0,0)"/>
<path d="" fill="#FFB105" transform="translate(0,0)"/>
<path d="" fill="#F97B00" transform="translate(0,0)"/>
<path d="" fill="#FB7A00" transform="translate(0,0)"/>
<path d="" fill="#FA7800" transform="translate(0,0)"/>
<path d="" fill="#FD7E00" transform="translate(0,0)"/>
<path d="" fill="#FAAA01" transform="translate(0,0)"/>
<path d="" fill="#FFA301" transform="translate(0,0)"/>
<path d="" fill="#FF8C00" transform="translate(0,0)"/>
<path d="" fill="#FE8200" transform="translate(0,0)"/>
<path d="" fill="#FFA201" transform="translate(0,0)"/>
<path d="" fill="#FF9200" transform="translate(0,0)"/>
<path d="" fill="#FF7E00" transform="translate(0,0)"/>
<path d="" fill="#FB7C00" transform="translate(0,0)"/>
<path d="" fill="#FCA406" transform="translate(0,0)"/>
<path d="" fill="#F97A00" transform="translate(0,0)"/>
<path d="" fill="#F0B71B" transform="translate(0,0)"/>
<path d="" fill="#FFA900" transform="translate(0,0)"/>
<path d="" fill="#FBA705" transform="translate(0,0)"/>
<path d="" fill="#F2B71D" transform="translate(0,0)"/>
<path d="" fill="#FEA806" transform="translate(0,0)"/>
<path d="" fill="#FFAC03" transform="translate(0,0)"/>
<path d="" fill="#F1B71B" transform="translate(0,0)"/>
<path d="" fill="#EFB71B" transform="translate(0,0)"/>
<path d="" fill="#FB8900" transform="translate(0,0)"/>
<path d="" fill="#FF8400" transform="translate(0,0)"/>
<path d="" fill="#F4B112" transform="translate(0,0)"/>
<path d="" fill="#FE8B00" transform="translate(0,0)"/>
<path d="" fill="#FF8500" transform="translate(0,0)"/>
<path d="" fill="#FCB105" transform="translate(0,0)"/>
<path d="" fill="#F88201" transform="translate(0,0)"/>
<path d="" fill="#FC8900" transform="translate(0,0)"/>
<path d="" fill="#FD8E00" transform="translate(0,0)"/>
<path d="" fill="#FEA101" transform="translate(0,0)"/>
<path d="" fill="#FF8F00" transform="translate(0,0)"/>
<path d="" fill="#FC8600" transform="translate(0,0)"/>
<path d="" fill="#FF9100" transform="translate(0,0)"/>
<path d="" fill="#FF9300" transform="translate(0,0)"/>
<path d="" fill="#FE9900" transform="translate(0,0)"/>
<path d="" fill="#FC9400" transform="translate(0,0)"/>
<path d="" fill="#FFB000" transform="translate(0,0)"/>
<path d="" fill="#FB9B00" transform="translate(0,0)"/>
<path d="" fill="#FE9F00" transform="translate(0,0)"/>
<path d="" fill="#F69708" transform="translate(0,0)"/>
<path d="" fill="#FC8F02" transform="translate(0,0)"/>
<path d="" fill="#FEBB0B" transform="translate(0,0)"/>
<path d="" fill="#FDA500" transform="translate(0,0)"/>
<path d="" fill="#FD8F04" transform="translate(0,0)"/>
<path d="" fill="#FD9100" transform="translate(0,0)"/>
<path d="" fill="#FFC309" transform="translate(0,0)"/>
<path d="" fill="#F88702" transform="translate(0,0)"/>
<path d="" fill="#FC7B01" transform="translate(0,0)"/>
<path d="" fill="#FE9B02" transform="translate(0,0)"/>
<path d="" fill="#FAC20D" transform="translate(0,0)"/>
<path d="" fill="#F97A01" transform="translate(0,0)"/>
<path d="" fill="#FF9C03" transform="translate(0,0)"/>
<path d="" fill="#FF9402" transform="translate(0,0)"/>
<path d="" fill="#F77A02" transform="translate(0,0)"/>
<path d="" fill="#FDB501" transform="translate(0,0)"/>
<path d="" fill="#FFC109" transform="translate(0,0)"/>
<path d="" fill="#FFAA04" transform="translate(0,0)"/>
<path d="" fill="#FF9703" transform="translate(0,0)"/>
<path d="" fill="#FFA700" transform="translate(0,0)"/>
<path d="" fill="#FFB400" transform="translate(0,0)"/>
<path d="" fill="#FF8F00" transform="translate(0,0)"/>
<path d="" fill="#FFC911" transform="translate(0,0)"/>
<path d="" fill="#FFA500" transform="translate(0,0)"/>
<path d="" fill="#FFBF04" transform="translate(0,0)"/>
<path d="" fill="#FD8701" transform="translate(0,0)"/>
<path d="" fill="#FFC60A" transform="translate(0,0)"/>
<path d="" fill="#FCB300" transform="translate(0,0)"/>
<path d="" fill="#FFA200" transform="translate(0,0)"/>
<path d="" fill="#FE8F00" transform="translate(0,0)"/>
<path d="" fill="#F47403" transform="translate(0,0)"/>
<path d="" fill="#FF8F02" transform="translate(0,0)"/>
<path d="" fill="#FF8E00" transform="translate(0,0)"/>
<path d="" fill="#FF8E00" transform="translate(0,0)"/>
<path d="" fill="#FD8E00" transform="translate(0,0)"/>
<path d="" fill="#FE8C00" transform="translate(0,0)"/>
<path d="" fill="#FD8A00" transform="translate(0,0)"/>
<path d="" fill="#FF8B00" transform="translate(0,0)"/>
<path d="" fill="#FE9002" transform="translate(0,0)"/>
<path d="" fill="#FF8A00" transform="translate(0,0)"/>
<path d="" fill="#FF8800" transform="translate(0,0)"/>
<path d="" fill="#FE8F00" transform="translate(0,0)"/>
<path d="" fill="#FFAE01" transform="translate(0,0)"/>
<path d="" fill="#FFA902" transform="translate(0,0)"/>
<path d="" fill="#FD9200" transform="translate(0,0)"/>
<path d="" fill="#F77D05" transform="translate(0,0)"/>
<path d="" fill="#FF9102" transform="translate(0,0)"/>
<path d="" fill="#FFB901" transform="translate(0,0)"/>
<path d="" fill="#FFB901" transform="translate(0,0)"/>
<path d="" fill="#FFBB00" transform="translate(0,0)"/>
<path d="" fill="#FF8E00" transform="translate(0,0)"/>
<path d="" fill="#FF8B01" transform="translate(0,0)"/>
<path d="" fill="#FEB900" transform="translate(0,0)"/>
<path d="" fill="#FF8C00" transform="translate(0,0)"/>
<path d="" fill="#FF9200" transform="translate(0,0)"/>
<path d="" fill="#FFC203" transform="translate(0,0)"/>
<path d="" fill="#FF9600" transform="translate(0,0)"/>
<path d="" fill="#FA8606" transform="translate(0,0)"/>
<path d="" fill="#FD8801" transform="translate(0,0)"/>
<path d="" fill="#FDA006" transform="translate(0,0)"/>
<path d="" fill="#F1B50B" transform="translate(0,0)"/>
<path d="" fill="#F2B812" transform="translate(0,0)"/>
</svg>
